<svg width="22px" height="24px" viewBox="0 0 22 24" version="1.1" xmlns="http://www.w3.org/2000/svg" xmlns:xlink="http://www.w3.org/1999/xlink">
    <defs>
        <polygon id="labud_logo_path-1" points="0 0 22 0 22 24 0 24"></polygon>
    </defs>
    <g id="labud_logo_utility" stroke="none" stroke-width="1" fill="none" fill-rule="evenodd">
        <g id="labud_logo_utility-page_about" transform="translate(-568.000000, -724.000000)">
            <g id="labud_logo_Group-3" transform="translate(374.000000, 662.000000)">
                <g id="labud_logo_Group-2">
                    <g id="labud_logo_Group" transform="translate(0.000000, 32.000000)">
                        <g id="labud_logo_Page-1-Copy" transform="translate(194.000000, 30.000000)">
                            <mask id="labud_logo_mask-2" fill="white">
                                <use xlink:href="#labud_logo_path-1"></use>
                            </mask>
                            <g id="labud_logo_Clip-2"></g>
                            <path d="M20.1213959,4.7029603 C20.1306771,4.57637001 20.1486163,4.45062022 20.1752411,4.32719585 C20.2615657,3.92699121 20.4297164,3.51220837 20.3052503,3.12257549 C20.2124481,2.83202952 19.9733559,2.61851171 19.7388356,2.42818266 C19.2724977,2.04972857 18.7830074,1.70213992 18.2962932,1.35135732 C17.7927759,0.988452691 17.2881682,0.619636465 16.7288267,0.35497823 C15.8903182,-0.0417709788 14.8805441,-0.180165784 14.0588113,0.332041618 C13.3639359,0.765166275 12.935428,1.52665056 12.6003178,2.25896912 C12.5829466,2.29691352 12.5658136,2.33495131 12.5488456,2.37308249 C11.7528672,4.16148444 11.9897055,6.18653693 12.963702,7.85115962 C13.4375527,8.66101999 14.1189691,9.34954792 14.8450504,9.92710038 C15.5350607,10.4759354 16.2877302,10.9476862 16.9207711,11.5683289 C17.3726787,12.0113902 17.7875444,12.5803881 18.1271439,13.1171758 C18.4939089,13.6969136 18.695052,14.4083688 18.70896,15.0971116 C18.7153093,15.4117055 18.6045037,15.6843859 18.2653256,15.7362548 C17.7933714,15.8084267 17.262991,15.4033564 16.9029876,15.1378296 C16.5021215,14.8421566 16.1356681,14.5021699 15.7612894,14.1733713 C14.5240955,13.0867867 13.369653,11.8955865 12.0704871,10.883714 C10.4664824,9.63440644 8.65457301,8.61119636 6.71090456,8.03313959 C5.86218046,7.7807248 4.9874362,7.63111384 4.1108229,7.52307083 C3.6155422,7.46203105 3.09643107,7.36709066 2.59726567,7.37273142 C2.06198357,7.37876443 1.54109502,7.53462318 1.03184223,7.68794173 C0.784357633,7.76244836 0.496221136,7.77007833 0.262039799,7.9023374 C-0.0787691744,8.09482376 -0.0463997431,8.45456247 0.12855827,8.76670024 C0.281637369,9.03980094 0.483641677,9.2653474 0.579366505,9.57217127 C0.66389534,9.84309598 0.708312833,10.1520024 0.701294722,10.436422 C0.689191688,10.9266361 0.522653576,11.4065772 0.482597206,11.8974169 C0.470274284,12.0484101 0.457896389,12.1895505 0.488616656,12.3402448 C0.532209567,12.5540335 0.605065983,12.8115567 0.706022327,13.0022313 C0.874731839,13.3208877 1.13005913,13.595576 1.34880245,13.8767083 C1.54722441,14.1317006 1.70038597,14.3744402 1.82564916,14.6726722 C1.98573721,15.0537785 2.09219077,15.4500328 2.22187922,15.8410292 C2.26477582,15.9703278 2.33108138,16.0886344 2.3714401,16.2185493 C2.40134495,16.3148439 2.41921089,16.4137347 2.44272981,16.5118223 C2.50248453,16.7610525 2.57386586,17.0079853 2.65426262,17.2510611 C2.79559601,17.6784142 2.95129545,18.0932718 3.17284235,18.4850806 C3.49792013,19.0599808 3.86537227,19.6216663 4.24960924,20.1575481 C4.55000452,20.5764961 4.91450649,20.9414554 5.26046452,21.3205912 C5.53898089,21.6258181 5.85675654,21.9000395 6.19428551,22.1368301 C6.33221062,22.2336009 6.48255027,22.3056514 6.6344658,22.3759835 C6.72407039,22.417458 6.81276795,22.4428788 6.89912919,22.4928799 C7.09947517,22.6088798 7.28998114,22.7421755 7.49127081,22.8572041 C7.79312285,23.0297049 8.10710542,23.1191166 8.43670008,23.2146827 C8.84278847,23.3324383 9.24818972,23.4331969 9.65899655,23.5315741 C10.0424639,23.6234046 10.3795989,23.8080835 10.7498271,23.932834 C10.8341544,23.9612433 10.9176205,23.9745981 11.0075732,23.9797906 C11.313933,23.9974973 11.614823,24.0182953 11.9199184,23.9711706 C12.2182706,23.925092 12.4579583,23.7472305 12.7349629,23.63675 C13.9342719,23.1584432 15.1942792,23.4042647 16.4309143,23.2064177 C16.7550575,23.1545488 17.1013271,23.063867 17.3594763,22.8469125 C17.5223679,22.7100026 17.6995431,22.5838325 17.8765718,22.4666466 C18.0037223,22.3824835 18.1030387,22.267707 18.2324064,22.1878958 C18.5153756,22.0133217 18.7972544,21.8385608 19.0571444,21.6286758 C19.8146056,21.0169799 20.6271213,20.7003128 21.2008198,19.8537688 C22.6093161,17.7754559 21.9468834,14.6890248 20.8226756,12.6494875 C20.2627935,11.6337393 19.5425576,10.7100457 18.705341,9.92506448 C17.8616743,9.13405024 16.9842914,8.46644169 16.0735679,7.75340819 C15.4750403,7.28480463 14.9118324,6.70870906 14.5683664,6.01529682 C14.3495773,5.57360829 14.2216479,5.08866146 14.1593278,4.59925993 C14.1095597,4.20844099 14.0520497,3.77365399 14.1204717,3.38247083 C14.1702032,3.09812596 14.3123153,2.81713379 14.5555121,2.66889567 C14.8427782,2.49378921 15.2068587,2.53418977 15.5324404,2.61335657 C15.7754173,2.67244449 16.0179819,2.75183543 16.2244389,2.89517991 C16.9301896,3.38519782 17.0496716,4.48515589 17.7855562,4.92672301 C17.9472293,5.02373666 18.1304973,5.0823016 18.2828617,5.1938841 C18.5242444,5.37067158 18.6590178,5.65671615 18.8222942,5.90987806 C19.2318733,6.54495884 19.8764034,7.01840934 20.5970149,7.21354798 C20.7622245,7.25829118 20.9908445,7.25611519 21.0440301,7.09051585 C21.0906923,6.94521017 20.9555341,6.8125682 20.8446919,6.70954957 C20.3091166,6.21177094 20.0671567,5.4430676 20.1213959,4.7029603" id="labud_logo_Fill-1" fill="#000000" mask="url(#labud_logo_mask-2)"></path>
                        </g>
                    </g>
                </g>
            </g>
        </g>
    </g>
</svg>
