<?xml version="1.0" standalone="no"?>
<!DOCTYPE svg PUBLIC "-//W3C//DTD SVG 1.1//EN" "http://www.w3.org/Graphics/SVG/1.1/DTD/svg11.dtd" >
<svg>
<metadata>
Created by FontForge 20090622 at Tue Feb 23 02:20:39 2016
 By deploy user
Copyright (C) 1996-2005, Hoefler &#38; Frere-Jones, Inc. www.typography.com
</metadata>
<defs>
<font id="MercuryTextG2-Roman" horiz-adv-x="500" >
  <font-face 
    font-family="Mercury Text G2"
    font-weight="500"
    font-stretch="normal"
    units-per-em="1000"
    panose-1="0 0 0 0 0 0 0 0 0 0"
    ascent="800"
    descent="-200"
    x-height="448"
    cap-height="637"
    bbox="-94 -266 1009 923"
    underline-thickness="20"
    underline-position="-90"
    unicode-range="U+0005-U+00FF"
  />
<missing-glyph 
 />
    <glyph glyph-name=".notdef" 
 />
    <glyph glyph-name=".null" horiz-adv-x="0" 
 />
    <glyph glyph-name="nonmarkingreturn" horiz-adv-x="333" 
 />
    <glyph glyph-name="breve" horiz-adv-x="336" 
d="M169 609q41 0 64 20.5t42 68.5l29 -8q-6 -71 -41 -110.5t-94 -39.5t-94.5 39.5t-41.5 110.5l29 8q18 -47 42 -68t65 -21z" />
    <glyph glyph-name="dotaccent" horiz-adv-x="192" 
d="M157 605q0 -25 -18.5 -44.5t-45.5 -19.5q-25 0 -41.5 16.5t-16.5 42.5q0 25 18.5 44.5t45.5 19.5q25 0 41.5 -16.5t16.5 -42.5z" />
    <glyph glyph-name="ring" horiz-adv-x="259" 
d="M232 642q0 -39 -30 -69.5t-75 -30.5t-72.5 28.5t-27.5 71.5q0 39 29.5 69.5t75.5 30.5q45 0 72.5 -28.5t27.5 -71.5zM190 642q0 37 -18 57t-44 20q-25 0 -42.5 -20.5t-17.5 -57.5q0 -36 18.5 -56.5t43.5 -20.5t42.5 20.5t17.5 57.5z" />
    <glyph glyph-name="hungarumlaut" unicode="&#xa;" horiz-adv-x="320" 
d="M300 662q-5 -8 -13.5 -19.5t-22.5 -26.5l-24.5 -26.5l-29.5 -31t-28 -29.5l-19 14q45 137 62 164q11 18 29.5 24t33.5 -3q36 -24 12 -66zM157 662q-5 -8 -13.5 -19.5t-22.5 -26.5l-24.5 -26.5l-29.5 -31t-28 -29.5l-19 14q46 137 62 164q11 18 29.5 24t33.5 -3
q36 -24 12 -66z" />
    <glyph glyph-name="ogonek" horiz-adv-x="269" 
d="M213 31q-81 -65 -111.5 -101t-30.5 -76q0 -33 17.5 -50t48.5 -17q21 0 58 22l15 -15q-46 -50 -101 -50q-48 0 -76 27t-28 70q0 54 45 100.5t148 107.5z" />
    <glyph glyph-name="caron" horiz-adv-x="299" 
d="M150 629l108 108l22 -19l-118 -177h-31l-110 177l22 19z" />
    <glyph glyph-name="dotlessi" unicode="&#xd;" horiz-adv-x="289" 
d="M109 46v327l-70 33v23l151 36l4 -3v-416l67 -19v-27h-223v27z" />
    <glyph glyph-name="fraction" horiz-adv-x="560" 
d="M530 612l-231 -315l-226 -329l-43 29l231 317l226 329z" />
    <glyph glyph-name="fi" horiz-adv-x="587" 
d="M204 393v-347l81 -19v-27h-237v27l71 19v347h-90v26l90 26v28q0 85 26.5 141t82.5 92q53 34 125 34q56 0 88.5 -23.5t32.5 -52.5q0 -23 -12 -36t-34 -13q-61 0 -80 89q-67 -1 -105.5 -53t-38.5 -147v-62h187l97 23l4 -3v-416l67 -19v-27h-223v27l71 19v347h-203z" />
    <glyph glyph-name="fl" horiz-adv-x="587" 
d="M492 46l67 -19v-27h-223v27l71 19v347h-203v-347l81 -19v-27h-237v27l71 19v347h-90v26l90 26v28q0 85 26.5 141t82.5 92q53 34 125 34q50 0 86 -22l44 23l9 -7v-688zM407 442v176q-44 14 -59 86q-67 -1 -105.5 -53t-38.5 -147v-62h203z" />
    <glyph glyph-name="Lslash" horiz-adv-x="628" 
d="M593 203l-26 -203h-531v31l110 19v221l-76 -20l-13 48l89 23v265l-110 19v31h321v-31l-115 -19v-239l119 32l13 -47l-132 -36v-248h155q41 0 59.5 10.5t42.5 42.5l75 105z" />
    <glyph glyph-name="lslash" horiz-adv-x="327" 
d="M212 345v-299l67 -19v-27h-223v27l71 19v276l-83 -22l-13 46l96 25v273l-78 34v24l154 39l9 -7v-340l89 24l13 -45z" />
    <glyph glyph-name="Zcaron" horiz-adv-x="648" 
d="M337 815l108 108l22 -19l-118 -177h-31l-110 177l22 19zM600 200l-26 -200h-528l-4 21l419 572h-190q-41 0 -62.5 -12.5t-48.5 -47.5l-63 -79l-21 7l24 176h485l4 -21l-419 -571h236q39 0 59 11t41 42l73 106z" />
    <glyph glyph-name="zcaron" horiz-adv-x="492" 
d="M254 629l108 108l22 -19l-118 -177h-31l-110 177l22 19zM451 431l-300 -393h181l95 102l22 -6l-16 -134h-394l-3 17l299 393h-167l-87 -102l-21 6l12 134h376z" />
    <glyph glyph-name="space" unicode=" " horiz-adv-x="220" 
 />
    <glyph glyph-name="exclam" unicode="!" horiz-adv-x="278" 
d="M197 587q0 -33 -44 -395h-26q-44 362 -44 395q0 31 16 48t41 17q26 0 41.5 -17t15.5 -48zM201 47q0 -25 -18.5 -43.5t-43.5 -18.5t-43.5 18.5t-18.5 43.5t18.5 43.5t43.5 18.5t43.5 -18.5t18.5 -43.5z" />
    <glyph glyph-name="quotedbl" unicode="&#x22;" horiz-adv-x="371" 
d="M343 612q0 -11 -4 -23q-10 -25 -61 -104l-44 -69l-22 10l17 79q21 101 28 116q14 31 42 31q15 0 29.5 -12t14.5 -28zM180 612q0 -14 -3 -23q-12 -30 -60 -104l-45 -69l-22 10l17 79q21 101 29 116q14 31 41 31q15 0 29 -12t14 -28z" />
    <glyph glyph-name="numbersign" unicode="#" horiz-adv-x="621" 
d="M573 387h-119l-26 -86l-21 -84h125v-43h-135l-42 -150l-52 11l43 139h-140l-42 -150l-52 11l43 139h-107v43h118l28 93l19 77h-124v43h136l45 159l50 -11l-44 -148h140l45 159l50 -11l-44 -148h106v-43zM404 387h-141l-26 -86l-21 -84h141l28 93z" />
    <glyph glyph-name="dollar" unicode="$" horiz-adv-x="547" 
d="M479 172q0 -80 -57 -131t-153 -55l-8 -105l-41 4l8 100q-84 4 -161 37l-10 170l24 2q28 -80 62.5 -121t89.5 -51l19 258q-93 34 -134 72.5t-41 99.5q0 72 55 122t144 54l7 91l41 -5l-7 -87q65 -4 132 -25l4 -150l-24 -3q-27 62 -53 94.5t-65 43.5l-16 -234
q101 -35 142.5 -76t41.5 -105zM276 594q-50 3 -88 -27t-38 -81q0 -44 24.5 -71t84.5 -49zM405 141q0 46 -26.5 74.5t-90.5 52.5l-19 -249q57 -2 96.5 31t39.5 91z" />
    <glyph glyph-name="percent" unicode="%" horiz-adv-x="810" 
d="M355 471q0 -64 -45 -113.5t-116 -49.5q-70 0 -111 45t-41 112q0 65 45.5 113.5t116.5 48.5q70 0 110.5 -44.5t40.5 -111.5zM150 -6l238 322l230 327l42 -27l-238 -320l-230 -328zM768 147q0 -64 -45 -113.5t-116 -49.5q-70 0 -111 45t-41 112q0 65 45.5 113.5t116.5 48.5
q70 0 110.5 -44.5t40.5 -111.5zM281 469q0 62 -22.5 95t-61.5 33q-37 0 -59.5 -34t-22.5 -97q0 -62 23.5 -95t61.5 -33q81 0 81 131zM528 142q0 -62 23.5 -95t61.5 -33q81 0 81 131q0 62 -22.5 95t-61.5 33q-37 0 -59.5 -34t-22.5 -97z" />
    <glyph glyph-name="ampersand" unicode="&#x26;" horiz-adv-x="705" 
d="M690 351v-26l-72 -27l-135 -169q35 -46 61.5 -61.5t69.5 -15.5q21 0 55 2l7 -19q-70 -50 -134 -50q-30 0 -57.5 19t-62.5 65q-48 -45 -91 -64.5t-95 -19.5q-88 0 -144 47.5t-56 121.5q0 114 132 183l37 20q-56 73 -56 131q0 62 47 101t114 39q68 0 108.5 -35t40.5 -84
q0 -40 -25.5 -73.5t-81.5 -69.5l-32 -20l142 -189l92 142l-55 29v23h191zM379 510q0 38 -20.5 61t-54.5 23t-55 -21.5t-21 -58.5q0 -44 46 -106l29 -39q41 41 58.5 71.5t17.5 69.5zM401 96l-177 238l-19 -18q-38 -34 -55.5 -67t-17.5 -75q0 -56 39 -90.5t98 -34.5
q67 0 132 47z" />
    <glyph glyph-name="quotesingle" unicode="'" horiz-adv-x="213" 
d="M183 612q0 -11 -4 -23q-12 -30 -60 -104l-45 -69l-22 10l17 79q21 101 28 116q15 31 42 31q15 0 29.5 -12t14.5 -28z" />
    <glyph glyph-name="parenleft" unicode="(" horiz-adv-x="361" 
d="M142 282q0 -157 65 -267t178 -166l-13 -26q-136 55 -223 174t-87 285t87 285t223 174l13 -26q-113 -56 -178 -166t-65 -267z" />
    <glyph glyph-name="parenright" unicode=")" horiz-adv-x="361" 
d="M299 282q0 -166 -87 -285t-223 -174l-13 26q113 56 178 166t65 267t-65 267t-178 166l13 26q136 -55 223 -174t87 -285z" />
    <glyph glyph-name="asterisk" unicode="*" horiz-adv-x="424" 
d="M40 532l26 52l130 -100l8 4l-22 161h60l-22 -161l8 -4l130 100l26 -52l-148 -61v-11l148 -61l-26 -52l-130 100l-8 -4l22 -161h-60l22 161l-8 4l-130 -100l-26 52l148 61v11z" />
    <glyph glyph-name="plus" unicode="+" horiz-adv-x="520" 
d="M473 280h-184v-189h-57v189h-185v53h185v186h57v-186h184v-53z" />
    <glyph glyph-name="comma" unicode="," horiz-adv-x="231" 
d="M185 28q0 -110 -142 -198l-18 20q93 71 104 145l-6 3l-2 -1q-9 -5 -24 -5q-20 0 -32.5 15t-12.5 38q0 26 18 44.5t44 18.5q33 0 52 -22t19 -58z" />
    <glyph glyph-name="hyphen" unicode="-" horiz-adv-x="366" 
d="M313 199h-260v71h260v-71z" />
    <glyph glyph-name="period" unicode="." horiz-adv-x="231" 
d="M178 46q0 -26 -18 -44t-44 -18t-44.5 18t-18.5 44t18.5 44t44.5 18t44 -18t18 -44z" />
    <glyph glyph-name="slash" unicode="/" horiz-adv-x="431" 
d="M463 725l-209 -466l-197 -469l-55 17l209 465l197 469z" />
    <glyph glyph-name="zero" unicode="0" horiz-adv-x="572" 
d="M525 306q0 -139 -66 -230t-177 -91q-115 0 -175.5 89.5t-60.5 231.5q0 140 66 231t177 91q115 0 175.5 -89.5t60.5 -232.5zM423 306q0 141 -42 213.5t-104 72.5q-129 0 -129 -286t146 -286q55 0 92 72.5t37 213.5z" />
    <glyph glyph-name="one" unicode="1" horiz-adv-x="394" 
d="M250 61l109 -31v-30h-310v30l111 31v468l-112 33v26l192 33l10 -8v-552z" />
    <glyph glyph-name="two" unicode="2" horiz-adv-x="523" 
d="M341 430q0 57 -32 90.5t-83 33.5q-40 0 -68.5 -18t-71.5 -63l-23 19q77 136 197 136q83 0 130 -46.5t47 -127.5q0 -77 -55.5 -149.5t-231.5 -219.5l4 -9h213l79 97l20 -10l-39 -163h-396l-7 23q131 111 220 210q54 59 75.5 102t21.5 95z" />
    <glyph glyph-name="three" unicode="3" horiz-adv-x="493" 
d="M437 175q0 -79 -63 -134.5t-154 -55.5q-79 0 -128 27t-49 69q0 26 16 42.5t41 16.5q34 0 52.5 -26t9.5 -71q33 -21 73 -21q49 0 82.5 32.5t33.5 86.5q0 129 -207 142v28q103 40 143.5 78t40.5 84q0 39 -27.5 63t-73.5 24q-64 0 -143 -67l-21 22q87 113 196 113
q74 0 113.5 -37.5t39.5 -89.5q0 -54 -34.5 -92t-100.5 -70v-10q160 -31 160 -154z" />
    <glyph glyph-name="four" unicode="4" horiz-adv-x="561" 
d="M518 184h-123v-125l104 -30v-29h-295v29l107 30v125h-266l-8 31l295 412l63 -6v-380h123v-57zM312 241v275h-10l-194 -275h204z" />
    <glyph glyph-name="five" unicode="5" horiz-adv-x="503" 
d="M446 199q0 -92 -65 -153t-157 -61q-77 0 -126 27t-49 69q0 26 16 42.5t41 16.5q35 0 52.5 -26.5t9.5 -70.5q32 -21 68 -21q55 0 90.5 39t35.5 107q0 67 -41 104t-108 37q-49 0 -106 -20l-20 10l35 313h245l42 49l24 -5l-22 -126h-251l-18 -148l7 -6q38 12 85 12
q97 0 154.5 -50t57.5 -139z" />
    <glyph glyph-name="six" unicode="6" horiz-adv-x="527" 
d="M479 215q0 -98 -61.5 -164t-156.5 -66q-93 0 -151.5 59t-58.5 174q0 166 123 283q106 101 257 138l8 -29q-106 -44 -173 -104q-67 -62 -102 -147l8 -4q65 47 129 47q82 0 130 -55.5t48 -131.5zM391 175q0 79 -35 125.5t-103 46.5q-46 0 -96 -26q-15 -49 -15 -103
q0 -86 36.5 -142t95.5 -56q52 0 84.5 43t32.5 112z" />
    <glyph glyph-name="seven" unicode="7" horiz-adv-x="482" 
d="M387 531h-253l-55 -77l-26 5l28 184l26 5l23 -36h328l11 -15l-303 -612h-89l145 244z" />
    <glyph glyph-name="eight" unicode="8" horiz-adv-x="526" 
d="M334 327q139 -67 139 -169q0 -76 -60 -124.5t-150 -48.5q-94 0 -149.5 44t-55.5 109q0 105 145 163q-127 58 -127 157q0 72 57.5 121t138.5 49q85 0 135.5 -41.5t50.5 -104.5q0 -99 -124 -155zM304 340q38 36 55 69t17 77q0 48 -29.5 77.5t-80.5 29.5q-48 0 -79 -31
t-31 -75q0 -49 30 -78.5t118 -68.5zM229 290q-84 -65 -84 -146q0 -57 35.5 -91t95.5 -34q49 0 82.5 32.5t33.5 78.5q0 50 -34.5 84.5t-128.5 75.5z" />
    <glyph glyph-name="nine" unicode="9" horiz-adv-x="527" 
d="M476 395q0 -166 -120 -280q-113 -107 -260 -141l-7 29q106 45 172 104q69 63 99 137l-8 4q-63 -47 -128 -47q-81 0 -128.5 56.5t-47.5 135.5q0 102 60 168.5t157 66.5q92 0 151.5 -61.5t59.5 -171.5zM385 395q0 92 -36 145t-96 53q-53 0 -85 -43t-32 -118
q0 -82 34.5 -129t100.5 -47q49 0 99 26q15 49 15 113z" />
    <glyph glyph-name="colon" unicode=":" horiz-adv-x="241" 
d="M183 339q0 -25 -18.5 -43.5t-43.5 -18.5q-26 0 -44.5 18t-18.5 44t18.5 44t44.5 18q25 0 43.5 -18.5t18.5 -43.5zM183 46q0 -26 -18.5 -44t-43.5 -18q-26 0 -44.5 18t-18.5 44t18.5 44t44.5 18q25 0 43.5 -18t18.5 -44z" />
    <glyph glyph-name="semicolon" unicode=";" horiz-adv-x="241" 
d="M186 339q0 -25 -18 -43.5t-44 -18.5t-44 18.5t-18 43.5t18 43.5t44 18.5t44 -18.5t18 -43.5zM185 28q0 -110 -142 -198l-18 20q93 71 104 145l-6 3l-2 -1q-9 -5 -24 -5q-20 0 -32.5 15t-12.5 38q0 26 18 44.5t44 18.5q33 0 52 -22t19 -58z" />
    <glyph glyph-name="less" unicode="&#x3c;" horiz-adv-x="520" 
d="M441 140l-13 -51l-358 192v51l358 191l13 -50l-314 -167z" />
    <glyph glyph-name="equal" unicode="=" horiz-adv-x="520" 
d="M464 429v-55h-408v55h408zM464 182h-408v55h408v-55z" />
    <glyph glyph-name="greater" unicode="&#x3e;" horiz-adv-x="520" 
d="M391 306l-314 167l14 50l357 -191v-51l-357 -192l-14 51z" />
    <glyph glyph-name="question" unicode="?" horiz-adv-x="410" 
d="M380 506q0 -48 -27.5 -78.5t-93.5 -65.5q-57 -30 -75 -47t-18 -39q0 -20 16 -32.5t42 -12.5q29 0 58 9l9 -25q-41 -23 -85 -23q-49 0 -83 25t-34 70q0 40 26.5 68.5t89.5 61.5q53 28 74.5 50.5t21.5 60.5q0 40 -27 65t-72 25q-36 0 -57 -17q15 -25 15 -47
q0 -26 -16 -42.5t-41 -16.5t-42 17.5t-17 44.5q0 42 43.5 68.5t108.5 26.5q80 0 132 -41.5t52 -104.5zM249 47q0 -25 -18.5 -43.5t-43.5 -18.5t-43.5 18.5t-18.5 43.5t18.5 43.5t43.5 18.5t43.5 -18.5t18.5 -43.5z" />
    <glyph glyph-name="at" unicode="@" horiz-adv-x="924" 
d="M812 319q0 127 -92 212t-233 85q-153 0 -260.5 -108.5t-107.5 -268.5q0 -165 100.5 -268t271.5 -103q124 0 243 64l16 -18q-120 -92 -282 -92q-181 0 -297 107t-116 288q0 186 131.5 310.5t323.5 124.5q155 0 258.5 -90t103.5 -227q0 -131 -74.5 -213.5t-164.5 -82.5
q-51 0 -81 22t-36 59l-10 2q-65 -75 -124 -75q-46 0 -73 30t-27 83q0 96 79.5 188.5t159.5 92.5q39 0 71 -23l42 46l19 -5l-63 -281q-11 -48 3.5 -76.5t50.5 -28.5q67 0 117.5 68.5t50.5 177.5zM564 361q-32 35 -68 35q-55 0 -98 -65.5t-43 -147.5q0 -42 16.5 -63t43.5 -21
q21 0 43 15t62 55z" />
    <glyph glyph-name="A" unicode="A" horiz-adv-x="675" 
d="M593 55l81 -24v-31h-281v30l98 19l-62 174h-234l-60 -168l76 -25v-30h-212v31l81 27l223 585h67zM413 267l-98 271h-8l-97 -271h203z" />
    <glyph glyph-name="B" unicode="B" horiz-adv-x="634" 
d="M587 183q0 -81 -62 -132t-168 -51h-327v31l110 19v537l-110 19v31h301q102 0 158 -39.5t56 -103.5q0 -113 -141 -149v-11q183 -28 183 -151zM237 351h87q57 0 88.5 34t31.5 97q0 62 -36 90t-94 28q-48 0 -77 -6v-243zM476 175q0 138 -156 138h-83v-269q33 -7 84 -7
q155 0 155 138z" />
    <glyph glyph-name="C" unicode="C" horiz-adv-x="679" 
d="M616 170l-19 -132q-97 -53 -209 -53q-154 0 -248.5 90t-94.5 240q0 148 98.5 242.5t236.5 94.5q82 0 154 -32l31 35h28l8 -214l-28 -2q-47 88 -95.5 131t-114.5 43q-90 0 -147.5 -79t-57.5 -209q0 -143 69.5 -219.5t181.5 -76.5q45 0 79 15l107 133z" />
    <glyph glyph-name="D" unicode="D" horiz-adv-x="739" 
d="M140 587l-109 19v31h316q160 0 253.5 -89.5t93.5 -228.5q0 -137 -99 -228t-254 -91h-310v31l109 19v537zM581 319q0 143 -69 208t-185 65h-89v-547h111q232 0 232 274z" />
    <glyph glyph-name="E" unicode="E" horiz-adv-x="646" 
d="M540 637l24 -169l-19 -7l-64 79q-26 32 -46 41t-65 9h-132v-248h59q46 0 66.5 17t34.5 69l9 33h25v-279h-25l-9 31q-15 52 -35.5 69.5t-65.5 17.5h-59v-252h178q44 0 62.5 8t37.5 36l74 105l20 -4l-27 -193h-552v31l109 19v537l-109 19v31h509z" />
    <glyph glyph-name="F" unicode="F" horiz-adv-x="593" 
d="M565 468l-20 -7l-64 79q-25 31 -45.5 40.5t-67.5 9.5h-130v-252h61q45 0 64.5 17t33.5 70l9 33h25v-279h-25l-9 31q-15 53 -34 69.5t-64 16.5h-61v-246l115 -19v-31h-322v31l109 19v537l-109 19v31h510z" />
    <glyph glyph-name="G" unicode="G" horiz-adv-x="709" 
d="M594 441l-28 -2q-48 93 -98 133t-116 40q-81 0 -137.5 -72.5t-56.5 -210.5q0 -143 63.5 -218t169.5 -75q60 0 119 32v170l-96 20v31h276v-31l-83 -20v-246l-26 -5l-53 49q-81 -51 -174 -51q-135 0 -222 89t-87 235q0 143 96 243t239 100q83 0 147 -32l32 35h28z" />
    <glyph glyph-name="H" unicode="H" horiz-adv-x="822" 
d="M584 355v232l-104 19v31h311v-31l-109 -19v-537l109 -19v-31h-311v31l104 19v256h-346v-256l104 -19v-31h-311v31l109 19v537l-109 19v31h311v-31l-104 -19v-232h346z" />
    <glyph glyph-name="I" unicode="I" horiz-adv-x="408" 
d="M253 50l112 -19v-31h-323v31l113 19v537l-113 19v31h323v-31l-112 -19v-537z" />
    <glyph glyph-name="J" unicode="J" horiz-adv-x="516" 
d="M382 232q0 -70 -10 -111.5t-40 -74.5q-57 -64 -163 -64q-71 0 -105 26t-34 64q0 27 19 44t45 17q34 0 53.5 -30.5t19.5 -86.5q60 5 88.5 47.5t28.5 130.5v393l-110 19v31h315v-31l-107 -19v-355z" />
    <glyph glyph-name="K" unicode="K" horiz-adv-x="718" 
d="M384 358l240 -298l85 -29v-31h-264v28l68 24l-195 253h-80v-255l98 -19v-31h-305v31l109 19v537l-109 19v31h305v-31l-98 -19v-237h86l202 226l-75 31v30h228v-31l-91 -35z" />
    <glyph glyph-name="L" unicode="L" horiz-adv-x="623" 
d="M588 203l-26 -203h-531v31l109 19v537l-109 19v31h321v-31l-114 -19v-538h154q41 0 59.5 10.5t42.5 42.5l75 105z" />
    <glyph glyph-name="M" unicode="M" horiz-adv-x="950" 
d="M810 50l109 -19v-31h-315v31l109 19v529h-12l-230 -579h-46l-227 579h-12v-520l89 -28v-31h-229v31l89 28v526l-89 21v31h235l38 -103l149 -397h15l150 397l38 103h248v-31l-109 -19v-537z" />
    <glyph glyph-name="N" unicode="N" horiz-adv-x="765" 
d="M135 59v518l-89 27v33h209l72 -102l251 -357h11v400l-99 28v31h240v-31l-89 -28v-584h-50l-72 102l-320 449h-12v-486l99 -28v-31h-240v31z" />
    <glyph glyph-name="O" unicode="O" horiz-adv-x="714" 
d="M667 319q0 -140 -87 -237t-227 -97q-145 0 -226.5 95.5t-81.5 238.5q0 139 87 236t227 97q145 0 226.5 -95.5t81.5 -237.5zM554 319q0 142 -63 220t-146 78q-79 0 -133 -70t-54 -228q0 -82 18 -142.5t49.5 -93.5t66.5 -48t75 -15q76 0 131.5 77.5t55.5 221.5z" />
    <glyph glyph-name="P" unicode="P" horiz-adv-x="600" 
d="M560 459q0 -83 -61 -138t-157 -55q-46 0 -104 9v-225l112 -19v-31h-319v31l109 19v537l-109 19v31h293q110 0 173 -48.5t63 -129.5zM452 455q0 72 -38.5 107t-106.5 35q-39 0 -69 -6v-278q30 -5 69 -5q145 0 145 147z" />
    <glyph glyph-name="Q" unicode="Q" horiz-adv-x="714" 
d="M667 319q0 -130 -71 -217t-184 -109q65 -97 120 -132q53 -35 137 -42l-3 -28h-95q-107 0 -151 32q-26 20 -70 94l-43 73q-123 19 -192.5 107t-69.5 222q0 139 87 236t227 97q145 0 226.5 -95.5t81.5 -237.5zM554 319q0 142 -63 220t-146 78q-79 0 -133 -70t-54 -228
q0 -82 18 -142.5t49.5 -93.5t66.5 -48t75 -15q76 0 131.5 77.5t55.5 221.5z" />
    <glyph glyph-name="R" unicode="R" horiz-adv-x="666" 
d="M570 474q0 -122 -184 -159v-11q73 -23 114 -102q5 -11 15.5 -32l16.5 -32.5l14.5 -26.5t15 -24.5t13.5 -16.5q32 -32 101 -40v-30h-98q-56 0 -82.5 21.5t-57.5 84.5l-56 115q-21 43 -43 56.5t-66 13.5h-35v-241l104 -19v-31h-311v31l109 19v537l-109 19v31h297
q115 0 178.5 -43.5t63.5 -119.5zM461 469q0 129 -153 129q-40 0 -70 -6v-259h70q71 0 112 34t41 102z" />
    <glyph glyph-name="S" unicode="S" horiz-adv-x="533" 
d="M480 185q0 -94 -65 -147t-147 -53q-83 0 -146 30l-26 -33h-31l-12 219l30 2q43 -105 85.5 -145t106.5 -40q55 0 88.5 32t33.5 85q0 47 -26.5 77.5t-94.5 59.5q-9 4 -41 17t-50 22q-55 27 -82.5 65t-27.5 95q0 83 56.5 132t132.5 49q65 0 115 -30l26 33h31l17 -192l-31 -2
q-41 89 -78 123.5t-89 34.5q-42 0 -69.5 -28t-27.5 -74q0 -43 22.5 -71.5t74.5 -50.5q88 -38 105 -46q62 -30 91 -69t29 -95z" />
    <glyph glyph-name="T" unicode="T" horiz-adv-x="673" 
d="M647 449l-21 -6l-54 77q-32 45 -53.5 59t-60.5 14h-67v-543l116 -19v-31h-330v31l116 19v543h-74q-38 0 -60 -14t-54 -59l-54 -77l-20 6l35 188h545z" />
    <glyph glyph-name="U" unicode="U" horiz-adv-x="748" 
d="M578 578l-89 28v31h229v-31l-89 -28v-356q0 -104 -66 -171.5t-182 -67.5q-123 0 -189.5 57t-66.5 170v377l-99 19v31h308v-31l-109 -19v-362q0 -188 185 -188q80 0 124 52.5t44 137.5v351z" />
    <glyph glyph-name="V" unicode="V" horiz-adv-x="678" 
d="M599 578l-232 -584h-44l-234 588l-90 24v31h297v-31l-101 -19l175 -466l175 457l-79 28v31h217v-31z" />
    <glyph glyph-name="W" unicode="W" horiz-adv-x="1008" 
d="M569 589l160 -457h2l144 447l-81 28v30h215v-30l-85 -28l-200 -585h-39l-170 466h-2l-184 -466h-39l-196 590l-90 23v30h288v-30l-96 -18l138 -456h2l153 396l-19 55l-82 23v30h272v-30z" />
    <glyph glyph-name="X" unicode="X" horiz-adv-x="723" 
d="M592 578l-191 -235l202 -289l89 -24v-30h-291v28l92 18l-146 229l-162 -221l74 -26v-28h-226v30l92 29l199 247l-193 276l-94 24v31h296v-29l-92 -18l138 -217l153 210l-75 25v29h227v-31z" />
    <glyph glyph-name="Y" unicode="Y" horiz-adv-x="658" 
d="M582 578l-196 -296v-232l116 -19v-31h-330v31l116 19v215l-201 318l-90 23v31h290v-31l-91 -18l166 -273l161 266l-88 25v31h229v-31z" />
    <glyph glyph-name="Z" unicode="Z" horiz-adv-x="648" 
d="M600 200l-26 -200h-528l-4 21l419 572h-190q-41 0 -62.5 -12.5t-48.5 -47.5l-63 -79l-21 7l24 176h485l4 -21l-419 -571h236q39 0 59 11t41 42l73 106z" />
    <glyph glyph-name="bracketleft" unicode="[" horiz-adv-x="323" 
d="M345 704h-177v-843h177v-40h-254v923h254v-40z" />
    <glyph glyph-name="backslash" unicode="\" horiz-adv-x="431" 
d="M23 741l197 -469l209 -465l-55 -17l-197 469l-209 467z" />
    <glyph glyph-name="bracketright" unicode="]" horiz-adv-x="323" 
d="M155 704h-177v40h254v-923h-254v40h177v843z" />
    <glyph glyph-name="asciicircum" unicode="^" horiz-adv-x="299" 
d="M150 626l-108 -103l-22 19l118 177h31l110 -177l-22 -19z" />
    <glyph glyph-name="underscore" unicode="_" horiz-adv-x="440" 
d="M442 46v-46h-444v46h444z" />
    <glyph glyph-name="grave" unicode="`" horiz-adv-x="238" 
d="M175 543l-20 -14l-36.5 36l-38 38l-27.5 29.5t-22 26.5q-12 20 -9 38t19 29q16 10 34 5t30 -23q21 -32 70 -165z" />
    <glyph glyph-name="a" unicode="a" horiz-adv-x="476" 
d="M392 331v-256q0 -23 17.5 -32t65.5 -6l3 -18q-15 -11 -47.5 -20.5t-57.5 -9.5q-29 0 -43.5 16.5t-16.5 55.5l-9 2q-74 -74 -144 -74q-50 0 -80 29t-30 75q0 69 70.5 111t188.5 52v55q0 58 -24 81t-78 23q-40 0 -74 -19q37 -23 37 -53q0 -22 -15 -36t-37 -14q-23 0 -38 14
t-15 37q0 50 63 84.5t138 34.5q64 0 95 -32t31 -100zM309 93v130q-89 -1 -133 -28.5t-44 -73.5q0 -34 18.5 -52.5t51.5 -18.5q47 0 107 43z" />
    <glyph glyph-name="b" unicode="b" horiz-adv-x="535" 
d="M493 236q0 -102 -71 -177t-182 -75q-39 0 -86.5 11t-77.5 26v623l-78 34v24l154 39l9 -7v-337l9 -2q38 36 69 52.5t72 16.5q74 0 128 -62t54 -166zM405 210q0 90 -39.5 139t-107.5 49q-49 0 -97 -36v-289q54 -51 115 -51q56 0 92.5 46.5t36.5 141.5z" />
    <glyph glyph-name="c" unicode="c" horiz-adv-x="470" 
d="M427 370q0 -28 -16 -45.5t-40 -17.5q-27 0 -43 18t-16 43q0 32 19 54q-23 6 -44 6q-66 0 -113 -52t-47 -147q0 -84 47 -133t119 -49q55 0 128 41l15 -18q-75 -86 -177 -86q-98 0 -159 62.5t-61 163.5q0 110 70 182t178 72q64 0 102 -27t38 -67z" />
    <glyph glyph-name="d" unicode="d" horiz-adv-x="558" 
d="M459 75l70 -33v-21l-141 -37l-10 7l7 76l-9 2l-1 -1q-42 -42 -76 -62.5t-81 -20.5q-70 0 -123 61t-53 159q0 111 70.5 185.5t180.5 74.5q38 0 81 -12v191l-78 34v24l154 39l9 -7v-659zM130 236q0 -87 37 -137.5t100 -50.5q50 0 107 49v274q-58 56 -117 56
q-56 0 -91.5 -47t-35.5 -144z" />
    <glyph glyph-name="e" unicode="e" horiz-adv-x="483" 
d="M446 245h-317q-1 -93 40.5 -143.5t125.5 -50.5q56 0 133 47l13 -24q-95 -90 -183 -90q-96 0 -157.5 64.5t-61.5 168.5q0 105 64 176t157 71q90 0 138 -62t48 -157zM130 278l220 7q-6 145 -101 145q-49 0 -81.5 -42t-37.5 -110z" />
    <glyph glyph-name="f" unicode="f" horiz-adv-x="328" 
d="M328 393h-124v-347l86 -19v-27h-242v27l71 19v347h-90v26l90 26v48q0 132 78 199q56 48 125 48q38 0 60 -16.5t22 -40.5q0 -23 -14 -37t-37 -14q-43 0 -84 66q-34 -20 -49.5 -59t-15.5 -110v-87h124v-49z" />
    <glyph glyph-name="g" unicode="g" horiz-adv-x="497" 
d="M408 310q0 -72 -50.5 -114t-128.5 -42q-34 0 -64 11q-32 -26 -32 -49q0 -22 17 -31.5t57 -9.5l112 -1q152 -2 152 -110q0 -68 -70 -121t-185 -53q-95 0 -147 32t-52 78q0 33 27.5 63.5t73.5 48.5l-1 9q-64 21 -64 63q0 47 81 87v8q-81 44 -81 130q0 70 52 112.5t129 42.5
q61 0 114 -34q71 46 117 46q26 0 41.5 -14.5t15.5 -36.5q0 -23 -13.5 -36t-33.5 -13q-19 0 -32 14t-14 35l-51 -5l-12 -15q42 -39 42 -95zM323 309q0 57 -24 90t-68 33q-93 0 -93 -123q0 -67 24.5 -96t72.5 -29q40 0 64 34.5t24 90.5zM401 -70q0 70 -103 72l-150 2
q-49 -30 -49 -82q0 -42 41 -67.5t111 -25.5q64 0 107 30t43 71z" />
    <glyph glyph-name="h" unicode="h" horiz-adv-x="576" 
d="M404 289q0 110 -91 110q-59 0 -126 -46v-307l67 -19v-27h-223v27l71 19v598l-78 34v24l154 39l9 -7v-349l4 -2q87 81 169 81q63 0 96 -38t33 -101v-279l71 -19v-27h-224v27l68 19v243z" />
    <glyph glyph-name="i" unicode="i" horiz-adv-x="289" 
d="M85 641q0 26 19 46.5t47 20.5q26 0 43.5 -18t17.5 -43q0 -27 -19 -47.5t-48 -20.5q-26 0 -43 18t-17 44zM109 373l-70 33v23l151 36l4 -3v-416l67 -19v-27h-223v27l71 19v327z" />
    <glyph glyph-name="j" unicode="j" horiz-adv-x="285" 
d="M89 641q0 26 19.5 46.5t46.5 20.5q26 0 43.5 -17.5t17.5 -43.5q0 -27 -19.5 -47.5t-47.5 -20.5q-26 0 -43 18t-17 44zM198 11q0 -61 -11 -98.5t-38 -68.5q-45 -54 -117 -54q-29 0 -47.5 15.5t-18.5 35.5q0 21 13 34t32 13q47 0 59 -60q24 13 33.5 41.5t9.5 84.5v419
l-70 33v23l151 36l4 -3v-451z" />
    <glyph glyph-name="k" unicode="k" horiz-adv-x="527" 
d="M284 261l168 -212l62 -22v-27h-198v26l42 21l-124 167h-47v-168l60 -19v-27h-216v27l71 19v598l-78 34v24l154 39l9 -7v-482h47l124 138l-55 35v23h194v-27l-74 -27z" />
    <glyph glyph-name="l" unicode="l" horiz-adv-x="287" 
d="M192 46l67 -19v-27h-223v27l71 19v598l-78 34v24l154 39l9 -7v-688z" />
    <glyph glyph-name="m" unicode="m" horiz-adv-x="840" 
d="M669 291q0 108 -81 108q-46 0 -118 -52v-301l70 -19v-27h-221v27l66 19v245q0 107 -82 107q-50 0 -114 -45v-307l66 -19v-27h-222v27l71 19v327l-70 33v23l145 36l9 -8l-7 -75l9 -2q88 84 158 84q86 0 113 -88l8 -2q92 90 163 90q58 0 89.5 -36.5t31.5 -102.5v-279
l72 -19v-27h-223v27l67 19v245z" />
    <glyph glyph-name="n" unicode="n" horiz-adv-x="566" 
d="M479 325v-279l71 -19v-27h-224v27l68 19v243q0 110 -89 110q-49 0 -116 -46v-307l67 -19v-27h-223v27l71 19v327l-70 33v23l145 36l9 -8l-7 -75l9 -2q90 84 163 84q60 0 93 -37.5t33 -101.5z" />
    <glyph glyph-name="o" unicode="o" horiz-adv-x="527" 
d="M488 227q0 -100 -63 -171.5t-168 -71.5q-102 0 -160 67t-58 173q0 100 63.5 170t168.5 70q103 0 160 -65.5t57 -171.5zM391 227q0 101 -35.5 150.5t-95.5 49.5q-55 0 -89.5 -51.5t-34.5 -154.5q0 -100 37 -150t94 -50q58 0 91 50.5t33 155.5z" />
    <glyph glyph-name="p" unicode="p" horiz-adv-x="558" 
d="M516 244q0 -104 -67.5 -182t-176.5 -78q-44 0 -88 11v-153l86 -25v-27h-242v27l71 25v531l-70 33v23l145 36l9 -8l-7 -75l9 -2q41 44 74 64t75 20q77 0 129.5 -61.5t52.5 -158.5zM428 214q0 88 -37 136t-101 48q-44 0 -106 -47v-273q58 -56 117 -56q55 0 91 47t36 145z
" />
    <glyph glyph-name="q" unicode="q" horiz-adv-x="535" 
d="M530 -210h-242v27l86 25v207l-9 2l-1 -1q-38 -34 -69 -50t-67 -16q-76 0 -131 61t-55 165t72 179t179 75q47 0 104 -21l42 41l20 -2v-640l71 -25v-27zM275 50q55 0 99 37v286q-55 53 -113 53q-56 0 -93.5 -46t-37.5 -142q0 -88 39 -138t106 -50z" />
    <glyph glyph-name="r" unicode="r" horiz-adv-x="407" 
d="M391 399q0 -28 -16 -45t-38 -17q-28 0 -42 19t-10 45q-24 2 -51 -20.5t-45 -56.5v-278l74 -19v-27h-230v27l71 19v327l-70 33v23l145 36l9 -8l-8 -87l10 -3q62 97 129 97q32 0 52 -18.5t20 -46.5z" />
    <glyph glyph-name="s" unicode="s" horiz-adv-x="412" 
d="M373 135q0 -66 -50 -106.5t-128 -40.5q-79 0 -150 27v126l29 3q23 -66 55.5 -93.5t80.5 -27.5q41 0 65 20t24 57q0 29 -23.5 49t-85.5 44q-71 27 -104.5 56t-33.5 79q0 58 45.5 97.5t116.5 39.5q76 0 131 -21l3 -111l-26 -6q-28 57 -56 80t-68 23q-33 0 -55 -18.5
t-22 -45.5q0 -28 22 -47t79 -40q85 -32 118 -62.5t33 -81.5z" />
    <glyph glyph-name="t" unicode="t" horiz-adv-x="339" 
d="M332 38q-75 -46 -138 -46q-101 0 -101 117v288h-75v27l83 39l45 119h31v-129h152v-56h-152v-257q0 -56 25 -73q17 -12 65 -12q27 0 64 6z" />
    <glyph glyph-name="u" unicode="u" horiz-adv-x="561" 
d="M463 66l70 -23v-23l-145 -36l-9 8l7 74l-9 2q-48 -44 -84 -64t-78 -20q-62 0 -94.5 40t-32.5 102v254l-70 31v18l146 36l9 -8v-295q0 -112 88 -112q50 0 117 45v285l-71 31v18l147 36l9 -8v-391z" />
    <glyph glyph-name="v" unicode="v" horiz-adv-x="499" 
d="M160 401l110 -295h9l48 128l53 159l-68 29v26h192v-27l-75 -32l-160 -400h-36l-170 410l-64 22v27h224v-26z" />
    <glyph glyph-name="w" unicode="w" horiz-adv-x="786" 
d="M447 402l101 -298h5l106 290l-61 29v25h184v-27l-75 -31l-168 -401h-32l-105 293l-139 -293h-33l-160 411l-63 21v27h221v-25l-67 -21l112 -306h5l106 236l-25 70l-57 21v25h212v-25z" />
    <glyph glyph-name="x" unicode="x" horiz-adv-x="540" 
d="M279 266l100 133l-51 27v22h177v-27l-78 -32l-126 -148l150 -192l66 -22v-27h-227v22l64 21l-102 144l-100 -138l50 -27v-22h-176v27l78 31l127 154l-145 187l-67 22v27h227v-22l-64 -21z" />
    <glyph glyph-name="y" unicode="y" horiz-adv-x="492" 
d="M427 389l-190 -471q-29 -70 -60.5 -99t-74.5 -29q-34 0 -52.5 16.5t-18.5 40.5q0 21 15.5 35.5t37.5 14.5q21 0 36.5 -11.5t32.5 -35.5q28 25 50 79l28 64l-169 406l-63 22v27h221v-26l-60 -21l112 -303h6l101 295l-70 29v26h188v-27z" />
    <glyph glyph-name="z" unicode="z" horiz-adv-x="492" 
d="M451 431l-300 -393h181l95 102l22 -6l-16 -134h-394l-3 17l299 393h-167l-87 -102l-21 6l12 134h376z" />
    <glyph glyph-name="braceleft" unicode="{" horiz-adv-x="388" 
d="M240 454q0 -43 -8 -72.5t-27 -47t-41.5 -27t-59.5 -17.5v-10q37 -8 59.5 -17.5t41.5 -27t27 -47t8 -72.5v-88q0 -88 31.5 -120.5t123.5 -47.5v-31q-130 5 -183 50t-53 163v90q0 67 -29.5 96t-103.5 38v38q74 9 103.5 38t29.5 96v90q0 118 53 163t183 50v-31
q-92 -15 -123.5 -48t-31.5 -121v-87z" />
    <glyph glyph-name="bar" unicode="|" horiz-adv-x="294" 
d="M176 -241h-58l5 471l-5 471h58l-5 -471z" />
    <glyph glyph-name="braceright" unicode="}" horiz-adv-x="388" 
d="M229 438q0 -67 29.5 -96t103.5 -38v-38q-74 -9 -103.5 -38t-29.5 -96v-90q0 -118 -53 -163t-183 -50v31q92 15 123.5 47.5t31.5 120.5v88q0 43 8 72.5t27 47t41.5 27t59.5 17.5v10q-37 8 -59.5 17.5t-41.5 27t-27 47t-8 72.5v87q0 88 -31.5 121t-123.5 48v31
q130 -5 183 -50t53 -163v-90z" />
    <glyph glyph-name="asciitilde" unicode="~" horiz-adv-x="371" 
d="M122 375q27 0 77 -24t64 -24q13 0 22 12.5t24 47.5l30 -7q-12 -63 -32 -92t-56 -29q-27 0 -76.5 24t-63.5 24q-13 0 -22 -12.5t-24 -47.5l-30 7q12 63 32 92t55 29z" />
    <glyph glyph-name="quotesinglbase" horiz-adv-x="231" 
d="M185 28q0 -110 -142 -198l-18 20q93 71 104 145l-6 3l-2 -1q-9 -5 -24 -5q-20 0 -32.5 15t-12.5 38q0 26 18 44.5t44 18.5q33 0 52 -22t19 -58z" />
    <glyph glyph-name="florin" horiz-adv-x="524" 
d="M505 567q0 -20 -15.5 -34t-39.5 -14q-28 0 -50.5 17t-30.5 53q-42 -20 -67 -66t-44 -153l-4 -24h111l-11 -51h-110l-37 -175q-23 -114 -43.5 -164t-65.5 -94q-49 -47 -113 -47q-38 0 -58.5 14.5t-20.5 37.5q0 20 16 34.5t41 14.5q44 0 81 -52q21 20 34.5 51.5t26.5 94.5
l58 285h-104l6 28l109 29l3 15q18 89 44 135.5t74 83.5q54 42 122 42q39 0 63.5 -16.5t24.5 -44.5z" />
    <glyph glyph-name="quotedblbase" horiz-adv-x="412" 
d="M386 28q0 -110 -142 -198l-18 20q93 71 104 145l-6 3l-2 -1q-9 -5 -24 -5q-20 0 -32.5 15t-12.5 38q0 26 18 44.5t44 18.5q33 0 52 -22t19 -58zM185 28q0 -110 -142 -198l-18 20q93 71 104 145l-6 3l-2 -1q-9 -5 -24 -5q-20 0 -32.5 15t-12.5 38q0 26 18 44.5t44 18.5
q33 0 52 -22t19 -58z" />
    <glyph glyph-name="ellipsis" unicode="&#x85;" horiz-adv-x="673" 
d="M620 46q0 -26 -18 -44t-44 -18t-44.5 18t-18.5 44t18.5 44t44.5 18t44 -18t18 -44zM399 46q0 -26 -18.5 -44t-43.5 -18q-26 0 -44.5 18t-18.5 44t18.5 44t44.5 18q25 0 43.5 -18t18.5 -44zM178 46q0 -26 -18 -44t-44 -18t-44.5 18t-18.5 44t18.5 44t44.5 18t44 -18
t18 -44z" />
    <glyph glyph-name="dagger" horiz-adv-x="474" 
d="M436 393l-179 6l6 -482h-52l6 482l-179 -6v49l179 -6l-6 234h52l-6 -234l179 6v-49z" />
    <glyph glyph-name="daggerdbl" horiz-adv-x="474" 
d="M436 141l-179 6l6 -230h-52l6 230l-179 -6v49l179 -6v219l-179 -6v49l179 -6l-6 230h52l-6 -230l179 6v-49l-179 6v-219l179 6v-49z" />
    <glyph glyph-name="circumflex" horiz-adv-x="299" 
d="M150 631l-108 -108l-22 19l118 177h31l110 -177l-22 -19z" />
    <glyph glyph-name="perthousand" horiz-adv-x="788" 
d="M744 319q0 -145 -103 -248t-248 -103t-247.5 103t-102.5 248t102.5 247.5t247.5 102.5t248 -102.5t103 -247.5zM713 319q0 133 -93.5 227t-226.5 94q-132 0 -225.5 -94t-93.5 -227q0 -134 93.5 -228t225.5 -94q133 0 226.5 94t93.5 228zM542 416q0 -34 -26.5 -58
t-75.5 -34v-6q50 -13 72 -60q23 -54 41 -73q13 -13 41 -18v-21h-62q-30 0 -43 12.5t-31 50.5l-26 57q-11 24 -24 31.5t-37 7.5h-22v-126l51 -12v-21h-170v21l51 12v294l-51 12v22h186q60 0 93 -26t33 -65zM469 407q0 35 -21 54t-54 19q-39 0 -45 -1v-149h45q33 1 54 21
t21 56z" />
    <glyph glyph-name="Scaron" horiz-adv-x="533" 
d="M267 815l108 108l22 -19l-118 -177h-31l-110 177l22 19zM480 185q0 -94 -65 -147t-147 -53q-83 0 -146 30l-26 -33h-31l-12 219l30 2q43 -105 85.5 -145t106.5 -40q55 0 88.5 32t33.5 85q0 47 -26.5 77.5t-94.5 59.5q-9 4 -41 17t-50 22q-55 27 -82.5 65t-27.5 95
q0 83 56.5 132t132.5 49q65 0 115 -30l26 33h31l17 -192l-31 -2q-41 89 -78 123.5t-89 34.5q-42 0 -69.5 -28t-27.5 -74q0 -43 22.5 -71.5t74.5 -50.5q88 -38 105 -46q62 -30 91 -69t29 -95z" />
    <glyph glyph-name="guilsinglleft" horiz-adv-x="300" 
d="M134 224l122 -180l-26 -17l-195 188v18l195 188l26 -18z" />
    <glyph glyph-name="OE" horiz-adv-x="1007" 
d="M971 193l-27 -193h-552q-160 0 -253.5 90t-93.5 229q0 136 99 227t254 91h503l24 -169l-19 -7l-64 79q-26 32 -46 41t-65 9h-132v-248h59q46 0 66.5 17t34.5 69l9 33h25v-279h-25l-9 31q-15 52 -35.5 69.5t-65.5 17.5h-59v-252h178q44 0 62.5 8t37.5 36l74 105zM158 319
q0 -141 69.5 -206.5t185.5 -65.5h88v543h-111q-107 0 -169.5 -65t-62.5 -206z" />
    <glyph glyph-name="quoteleft" horiz-adv-x="231" 
d="M179 444q0 -26 -18 -44.5t-44 -18.5q-33 0 -52 22t-19 58q0 111 142 197l18 -20q-93 -71 -104 -144l6 -3l2 1q9 5 24 5q19 0 32 -15t13 -38z" />
    <glyph glyph-name="quoteright" horiz-adv-x="231" 
d="M185 572q0 -110 -142 -198l-18 20q93 71 104 145l-6 3l-2 -1q-9 -5 -24 -5q-20 0 -32.5 15t-12.5 38q0 26 18 44.5t44 18.5q33 0 52 -22t19 -58z" />
    <glyph glyph-name="quotedblleft" horiz-adv-x="432" 
d="M380 444q0 -26 -18 -44.5t-44 -18.5q-33 0 -52 22t-19 58q0 111 142 197l18 -20q-93 -71 -104 -144l6 -3l2 1q9 5 24 5q19 0 32 -15t13 -38zM179 444q0 -26 -18 -44.5t-44 -18.5q-33 0 -52 22t-19 58q0 111 142 197l18 -20q-93 -71 -104 -144l6 -3l2 1q9 5 24 5
q19 0 32 -15t13 -38z" />
    <glyph glyph-name="quotedblright" horiz-adv-x="432" 
d="M386 572q0 -110 -142 -198l-18 20q93 71 104 145l-6 3l-2 -1q-9 -5 -24 -5q-20 0 -32.5 15t-12.5 38q0 26 18 44.5t44 18.5q33 0 52 -22t19 -58zM185 572q0 -110 -142 -198l-18 20q93 71 104 145l-6 3l-2 -1q-9 -5 -24 -5q-20 0 -32.5 15t-12.5 38q0 26 18 44.5t44 18.5
q33 0 52 -22t19 -58z" />
    <glyph glyph-name="bullet" horiz-adv-x="490" 
d="M382 319q0 -58 -40 -98t-98 -40q-57 0 -97 40t-40 98q0 57 40 97t97 40q58 0 98 -40t40 -97z" />
    <glyph glyph-name="endash" horiz-adv-x="540" 
d="M487 219h-434v55h434v-55z" />
    <glyph glyph-name="emdash" horiz-adv-x="790" 
d="M737 219h-684v55h684v-55z" />
    <glyph glyph-name="tilde" horiz-adv-x="331" 
d="M14 540q12 64 31.5 92.5t55.5 28.5q27 0 76.5 -24t63.5 -24q13 0 22 12.5t25 48.5l29 -7q-12 -64 -31.5 -92.5t-55.5 -28.5q-27 0 -76.5 24t-63.5 24q-13 0 -22 -12.5t-25 -48.5z" />
    <glyph glyph-name="trademark" horiz-adv-x="820" 
d="M737 608v-229l44 -14v-15h-138v15l36 14v223h-9l-97 -252h-27l-99 252h-11v-220l34 -17v-15h-104v15l38 17v224l-38 15v16h127l17 -50l61 -157h6l60 160l15 47h129v-16zM332 542l-12 -2l-32 41q-14 20 -22.5 26t-23.5 6h-26v-234l46 -14v-15h-149v15l46 14v234h-29
q-15 0 -23.5 -6t-22.5 -26l-33 -41l-12 2l13 95h267z" />
    <glyph glyph-name="scaron" horiz-adv-x="412" 
d="M212 629l108 108l22 -19l-118 -177h-31l-110 177l22 19zM373 135q0 -66 -50 -106.5t-128 -40.5q-79 0 -150 27v126l29 3q23 -66 55.5 -93.5t80.5 -27.5q41 0 65 20t24 57q0 29 -23.5 49t-85.5 44q-71 27 -104.5 56t-33.5 79q0 58 45.5 97.5t116.5 39.5q76 0 131 -21
l3 -111l-26 -6q-28 57 -56 80t-68 23q-33 0 -55 -18.5t-22 -45.5q0 -28 22 -47t79 -40q85 -32 118 -62.5t33 -81.5z" />
    <glyph glyph-name="guilsinglright" horiz-adv-x="300" 
d="M265 233v-18l-195 -188l-26 18l122 179l-122 179l26 18z" />
    <glyph glyph-name="oe" horiz-adv-x="840" 
d="M486 245q-1 -93 40.5 -143.5t124.5 -50.5q57 0 134 47l13 -24q-96 -90 -182 -90q-112 0 -177 99q-68 -99 -185 -99q-98 0 -156.5 67.5t-58.5 172.5q0 99 63.5 169.5t165.5 70.5q116 0 179 -98q67 98 170 98q90 0 138 -62t48 -157h-317zM487 278l220 7q-6 145 -101 145
q-49 0 -81.5 -42t-37.5 -110zM391 227q0 101 -35.5 150.5t-95.5 49.5q-55 0 -89.5 -51.5t-34.5 -154.5q0 -100 37 -150t94 -50q58 0 91 50.5t33 155.5z" />
    <glyph glyph-name="Ydieresis" horiz-adv-x="658" 
d="M448 730q-24 0 -39.5 16t-15.5 40q0 25 17.5 43t43.5 18q24 0 39 -16t15 -40q0 -25 -17 -43t-43 -18zM260 730q-24 0 -39 16t-15 40q0 25 17 43t43 18q24 0 39.5 -16t15.5 -40q0 -25 -17.5 -43t-43.5 -18zM582 578l-196 -296v-232l116 -19v-31h-330v31l116 19v215
l-201 318l-90 23v31h290v-31l-91 -18l166 -273l161 266l-88 25v31h229v-31z" />
    <glyph glyph-name="exclamdown" unicode="&#xa1;" horiz-adv-x="278" 
d="M201 339q0 -25 -18.5 -43.5t-43.5 -18.5t-43.5 18.5t-18.5 43.5t18.5 43.5t43.5 18.5t43.5 -18.5t18.5 -43.5zM125 194h26q44 -362 44 -395q0 -31 -16 -48t-41 -17q-26 0 -41.5 17t-15.5 48q0 33 44 395z" />
    <glyph glyph-name="cent" unicode="&#xa2;" horiz-adv-x="480" 
d="M256 48q15 -3 33 -3q50 0 129 44l16 -20q-80 -84 -183 -83l-7 -99l-39 4l9 99q-80 15 -126 74t-46 142q0 90 59 159.5t150 82.5l7 91l38 -4l-7 -85q63 -1 109 -30.5t46 -68.5q0 -21 -13.5 -35t-34.5 -14q-26 0 -42.5 28t-11.5 71q-21 16 -56 18l-19 -209zM125 223
q0 -61 26 -103t70 -61l14 154l14 203q-57 -13 -90.5 -67.5t-33.5 -125.5z" />
    <glyph glyph-name="sterling" unicode="&#xa3;" horiz-adv-x="558" 
d="M424 331v-44h-146q2 -14 2 -25q0 -52 -21 -87.5t-73 -75.5l6 -12q37 2 104.5 -8t95.5 -10q39 0 59 24.5t34 86.5l35 -1q-8 -86 -43 -140t-95 -54q-70 0 -218 72q-15 -33 -38.5 -52.5t-47.5 -19.5q-23 0 -36 12.5t-13 31.5q0 28 29 47t86 22q49 61 49 130q0 28 -12 59
h-130v44h111q-21 48 -21 88q0 87 70 148t161 61q66 0 94.5 -23t28.5 -50q0 -24 -16 -40.5t-40 -16.5q-29 0 -52.5 22.5t-33.5 67.5q-56 -8 -87.5 -45t-31.5 -90q0 -18 3.5 -36.5t7 -28.5t12 -31l10.5 -26h157z" />
    <glyph glyph-name="currency" unicode="&#xa4;" horiz-adv-x="596" 
d="M118 351h-90v40h98q29 105 108.5 171t178.5 66q67 0 100.5 -20.5t33.5 -53.5q0 -24 -15.5 -40t-39.5 -16q-31 0 -55 24t-32 69h-2q-66 -5 -118.5 -58t-70.5 -142h273v-40h-279q-2 -28 -2 -43q0 -30 3 -55h278v-40h-270q20 -82 73.5 -124.5t126.5 -42.5q62 0 123 29
l14 -21q-69 -69 -172 -69q-105 0 -175 59.5t-89 168.5h-90v40h85q0 5 -0.5 17t-0.5 18q0 32 6 63z" />
    <glyph glyph-name="yen" unicode="&#xa5;" horiz-adv-x="654" 
d="M113 313h153l-159 244l-82 25v30h276v-30l-87 -18l139 -234l143 228l-73 24v30h205v-30l-78 -29l-166 -240h155v-37h-169v-80h169v-36h-169v-110l103 -20v-30h-294v30l102 20v110h-168v36h168v80h-168v37z" />
    <glyph glyph-name="brokenbar" unicode="&#xa6;" horiz-adv-x="294" 
d="M176 299h-58l5 201l-5 201h58l-5 -201zM176 -241h-58l5 201l-5 201h58l-5 -201z" />
    <glyph glyph-name="section" unicode="&#xa7;" horiz-adv-x="525" 
d="M462 182q0 -121 -71 -200.5t-177 -79.5q-63 0 -102.5 23.5t-39.5 61.5q0 24 17.5 41t40.5 17q27 0 43.5 -15t16.5 -39q0 -17 -7 -34q22 -16 57 -16q46 0 83.5 29t56.5 78q-156 40 -236.5 133.5t-80.5 209.5q0 121 71 200.5t177 79.5q63 0 102.5 -23.5t39.5 -61.5
q0 -24 -17.5 -41t-40.5 -17q-27 0 -43.5 15t-16.5 39q0 17 7 34q-22 16 -57 16q-46 0 -83.5 -29t-56.5 -78q156 -40 236.5 -133.5t80.5 -209.5zM129 437q0 -103 66 -197t195 -162q6 28 6 58q0 103 -66 197t-195 162q-6 -29 -6 -58z" />
    <glyph glyph-name="dieresis" unicode="&#xa8;" horiz-adv-x="322" 
d="M252 544q-24 0 -39.5 16t-15.5 40q0 25 17.5 43t43.5 18q24 0 39 -16t15 -40q0 -25 -17 -43t-43 -18zM64 544q-24 0 -39 16t-15 40q0 25 17 43t43 18q24 0 39.5 -16t15.5 -40q0 -25 -17.5 -43t-43.5 -18z" />
    <glyph glyph-name="copyright" unicode="&#xa9;" horiz-adv-x="788" 
d="M744 319q0 -145 -103 -248t-248 -103t-247.5 103t-102.5 248t102.5 247.5t247.5 102.5t248 -102.5t103 -247.5zM713 319q0 133 -93.5 227t-226.5 94q-132 0 -225.5 -94t-93.5 -227q0 -134 93.5 -228t225.5 -94q133 0 226.5 94t93.5 228zM292 324q0 -77 35.5 -117
t92.5 -40q23 0 34 5l62 81l18 -5l-12 -90q-56 -27 -118 -27q-87 0 -139.5 50t-52.5 133q0 79 55.5 135t138.5 56q44 0 80 -17l14 23h20l7 -136l-22 -2q-24 53 -51 76t-64 23q-41 0 -69.5 -36t-28.5 -112z" />
    <glyph glyph-name="ordfeminine" unicode="&#xaa;" horiz-adv-x="410" 
d="M72 566q0 36 47.5 61t103.5 25q97 0 97 -96v-176q0 -31 57 -28l3 -17q-36 -19 -74 -19q-43 0 -46 49l-8 1q-60 -50 -111 -50q-38 0 -60.5 21.5t-22.5 55.5q0 48 49 77t145 34v44q0 34 -17.5 49t-56.5 15q-26 0 -50 -7q21 -18 21 -40q0 -15 -10.5 -26t-27.5 -11
q-18 0 -28.5 11.5t-10.5 26.5zM126 410q0 -48 51 -48q32 0 75 25v92q-126 -7 -126 -69z" />
    <glyph glyph-name="guillemotleft" unicode="&#xab;" 
d="M337 224l119 -180l-26 -17l-193 188v18l193 188l26 -18zM134 224l119 -180l-26 -17l-192 188v18l192 188l26 -18z" />
    <glyph glyph-name="logicalnot" unicode="&#xac;" horiz-adv-x="520" 
d="M466 278h-412v57h412v-57z" />
    <glyph glyph-name="minus" unicode="&#xad;" horiz-adv-x="520" 
d="M466 278h-412v57h412v-57z" />
    <glyph glyph-name="registered" unicode="&#xae;" horiz-adv-x="418" 
d="M209 289q-80 0 -133.5 53.5t-53.5 132.5t54 133t133 54t133 -54t54 -133t-53.5 -132.5t-133.5 -53.5zM209 309q71 0 118 47.5t47 118.5t-47 119t-118 48t-118 -48t-47 -119t47 -118.5t118 -47.5zM291 526q0 -39 -58 -49v-7q34 -4 42 -27q9 -24 20 -36q9 -9 28 -10v-14
h-43q-17 0 -23.5 6.5t-14.5 26.5l-13 30q-9 19 -31 19h-12v-60l32 -8v-14h-105v14l33 8v149l-33 7v14h109q33 0 51 -14t18 -35zM249 522q0 35 -42 35h-21v-74h24q17 0 28 10.5t11 28.5z" />
    <glyph glyph-name="macron" unicode="&#xaf;" horiz-adv-x="321" 
d="M288 618v-61h-255v61h255z" />
    <glyph glyph-name="degree" unicode="&#xb0;" horiz-adv-x="394" 
d="M351 503q0 -59 -43.5 -105t-113.5 -46q-69 0 -110 44.5t-41 105.5q0 59 43.5 104.5t114.5 45.5q69 0 109.5 -44t40.5 -105zM284 503q0 53 -24.5 85t-63.5 32q-38 0 -62 -32.5t-24 -86.5q0 -52 25 -84.5t63 -32.5q39 0 62.5 32.5t23.5 86.5z" />
    <glyph glyph-name="plusminus" unicode="&#xb1;" 
d="M25 -200v1000h450v-1000h-450z" />
    <glyph glyph-name="twosuperior" unicode="&#xb2;" horiz-adv-x="390" 
d="M96 248l4 -10h181l49 79l20 -5l-22 -139h-285l-12 63q89 73 143 131q44 47 61 77t17 62q0 33 -21.5 54.5t-55.5 21.5q-72 0 -101 -92l-29 8q10 68 51.5 108t102.5 40q62 0 98 -36.5t36 -90.5q0 -60 -50 -117t-187 -154z" />
    <glyph glyph-name="threesuperior" unicode="&#xb3;" horiz-adv-x="390" 
d="M118 377v38q79 26 106.5 50t27.5 62q0 25 -19.5 42.5t-52.5 17.5q-64 0 -109 -72l-26 14q21 53 65 85t100 32q54 0 86.5 -28t32.5 -73q0 -84 -102 -113v-14q122 -20 122 -116q0 -62 -49 -103t-121 -41q-63 0 -104 23.5t-41 57.5q0 21 13 35t33 14q28 0 43 -21.5t8 -57.5
q24 -16 56 -16q37 0 61 21.5t24 60.5q0 92 -154 102z" />
    <glyph glyph-name="acute" unicode="&#xb4;" horiz-adv-x="238" 
d="M184 726q16 -11 19 -29t-9 -38q-7 -10 -22 -26.5l-27.5 -29.5l-38 -38l-36.5 -36l-20 14q50 137 69 165q13 18 31 23t34 -5z" />
    <glyph glyph-name="mu" unicode="&#xb5;" horiz-adv-x="520" 
d="M296 305l141 -144l-39 -38l-138 144l-138 -144l-39 38l141 144l-141 144l39 38l138 -144l138 144l39 -38z" />
    <glyph glyph-name="paragraph" unicode="&#xb6;" horiz-adv-x="627" 
d="M306 203q-116 3 -186 54.5t-70 152.5q0 97 70.5 152t189.5 55h293v-28l-108 -20v-669h-52v671h-85v-671h-52v303zM306 248v323q-75 0 -115.5 -41t-40.5 -115q0 -75 39 -117.5t117 -49.5z" />
    <glyph glyph-name="periodcentered" unicode="&#xb7;" horiz-adv-x="231" 
d="M178 318q0 -26 -18 -44t-44 -18t-44.5 18t-18.5 44t18.5 44t44.5 18t44 -18t18 -44z" />
    <glyph glyph-name="cedilla" unicode="&#xb8;" horiz-adv-x="282" 
d="M173 -165q0 -44 -33 -72t-81 -28q-36 0 -57 13t-21 31q0 32 30 32q13 0 21.5 -9t8.5 -21q0 -7 -5 -19q11 -3 26 -3q23 0 40 16.5t17 44.5t-18.5 44t-50.5 16q-6 0 -23 -3l-16 18l182 153l16 -22l-120 -102q34 -5 59 -28t25 -61z" />
    <glyph glyph-name="onesuperior" unicode="&#xb9;" horiz-adv-x="390" 
d="M249 227l103 -32v-22h-288v22l105 32v350l-103 29v20l171 23l12 -7v-415z" />
    <glyph glyph-name="ordmasculine" unicode="&#xba;" horiz-adv-x="420" 
d="M376 486q0 -70 -46.5 -120t-124.5 -50q-76 0 -118.5 47.5t-42.5 120.5q0 69 46.5 118.5t124.5 49.5q77 0 119 -46.5t42 -119.5zM298 486q0 65 -24.5 100t-65.5 35q-39 0 -62.5 -35.5t-23.5 -102.5q0 -65 25 -101t65 -36q41 0 63.5 35.5t22.5 104.5z" />
    <glyph glyph-name="guillemotright" unicode="&#xbb;" 
d="M466 215l-193 -188l-27 18l120 179l-120 179l27 18l193 -188v-18zM263 215l-193 -188l-26 18l120 179l-120 179l26 18l193 -188v-18z" />
    <glyph glyph-name="onequarter" unicode="&#xbc;" horiz-adv-x="1040" 
d="M249 227l103 -32v-22h-288v22l105 32v350l-103 29v20l171 23l12 -7v-415zM815 640l-259 -375l-254 -381l-39 29l259 375l254 381zM629 106l198 289l83 -6v-274h74v-54h-74v-92l66 -24v-22h-221v23l81 23v94h-192zM839 112v218h-17l-137 -218h154z" />
    <glyph glyph-name="onehalf" unicode="&#xbd;" horiz-adv-x="1040" 
d="M249 227l103 -32v-22h-288v22l105 32v350l-103 29v20l171 23l12 -7v-415zM810 640l-259 -375l-254 -381l-39 29l259 375l254 381zM736 -2l4 -10h181l49 79l20 -5l-22 -139h-285l-12 63q89 73 143 131q44 47 61 77t17 62q0 33 -21.5 54.5t-55.5 21.5q-72 0 -101 -92l-29 8
q10 68 51.5 108t102.5 40q62 0 98 -36.5t36 -90.5q0 -60 -50 -117t-187 -154z" />
    <glyph glyph-name="threequarters" unicode="&#xbe;" horiz-adv-x="1040" 
d="M148 377v38q79 26 106.5 50t27.5 62q0 25 -19.5 42.5t-52.5 17.5q-64 0 -109 -72l-26 14q21 53 65 85t100 32q54 0 86.5 -28t32.5 -73q0 -84 -102 -113v-14q122 -20 122 -116q0 -62 -49 -103t-121 -41q-63 0 -104 23.5t-41 57.5q0 21 13 35t33 14q28 0 43 -21.5t8 -57.5
q24 -16 56 -16q37 0 61 21.5t24 60.5q0 92 -154 102zM820 640l-259 -375l-254 -381l-39 29l259 375l254 381zM629 106l198 289l83 -6v-274h74v-54h-74v-92l66 -24v-22h-221v23l81 23v94h-192zM839 112v218h-17l-137 -218h154z" />
    <glyph glyph-name="questiondown" unicode="&#xbf;" horiz-adv-x="410" 
d="M285 339q0 -25 -18.5 -43.5t-43.5 -18.5t-43.5 18.5t-18.5 43.5t18.5 43.5t43.5 18.5t43.5 -18.5t18.5 -43.5zM366 -171q0 -42 -43.5 -68.5t-108.5 -26.5q-80 0 -132 41.5t-52 104.5q0 48 27.5 78.5t93.5 65.5q57 30 75 47t18 39q0 20 -16 32.5t-42 12.5q-29 0 -58 -9
l-9 25q41 23 85 23q49 0 83 -25t34 -70q0 -40 -26.5 -68.5t-89.5 -61.5q-53 -28 -74.5 -50.5t-21.5 -60.5q0 -40 27 -65t72 -25q36 0 57 17q-15 25 -15 47q0 26 16 42.5t41 16.5t42 -17.5t17 -44.5z" />
    <glyph glyph-name="Agrave" unicode="&#xc0;" horiz-adv-x="675" 
d="M358 729l-20 -14l-36.5 36l-38 38l-27.5 29.5t-22 26.5q-12 20 -9 38t19 29q16 10 34 5t30 -23q21 -32 70 -165zM593 55l81 -24v-31h-281v30l98 19l-62 174h-234l-60 -168l76 -25v-30h-212v31l81 27l223 585h67zM413 267l-98 271h-8l-97 -271h203z" />
    <glyph glyph-name="Aacute" unicode="&#xc1;" horiz-adv-x="675" 
d="M427 912q16 -11 19 -29t-9 -38q-7 -10 -22 -26.5l-27.5 -29.5l-38 -38l-36.5 -36l-20 14q50 137 69 165q13 18 31 23t34 -5zM593 55l81 -24v-31h-281v30l98 19l-62 174h-234l-60 -168l76 -25v-30h-212v31l81 27l223 585h67zM413 267l-98 271h-8l-97 -271h203z" />
    <glyph glyph-name="Acircumflex" unicode="&#xc2;" horiz-adv-x="675" 
d="M335 807l-108 -108l-22 19l118 177h31l110 -177l-22 -19zM593 55l81 -24v-31h-281v30l98 19l-62 174h-234l-60 -168l76 -25v-30h-212v31l81 27l223 585h67zM413 267l-98 271h-8l-97 -271h203z" />
    <glyph glyph-name="Atilde" unicode="&#xc3;" horiz-adv-x="675" 
d="M188 726q12 64 31.5 92.5t55.5 28.5q27 0 76.5 -24t63.5 -24q13 0 22 12.5t25 48.5l29 -7q-12 -64 -31.5 -92.5t-55.5 -28.5q-27 0 -76.5 24t-63.5 24q-13 0 -22 -12.5t-25 -48.5zM593 55l81 -24v-31h-281v30l98 19l-62 174h-234l-60 -168l76 -25v-30h-212v31l81 27
l223 585h67zM413 267l-98 271h-8l-97 -271h203z" />
    <glyph glyph-name="Adieresis" unicode="&#xc4;" horiz-adv-x="675" 
d="M433 730q-24 0 -39.5 16t-15.5 40q0 25 17.5 43t43.5 18q24 0 39 -16t15 -40q0 -25 -17 -43t-43 -18zM245 730q-24 0 -39 16t-15 40q0 25 17 43t43 18q24 0 39.5 -16t15.5 -40q0 -25 -17.5 -43t-43.5 -18zM593 55l81 -24v-31h-281v30l98 19l-62 174h-234l-60 -168l76 -25
v-30h-212v31l81 27l223 585h67zM413 267l-98 271h-8l-97 -271h203z" />
    <glyph glyph-name="Aring" unicode="&#xc5;" horiz-adv-x="675" 
d="M593 55l81 -24v-31h-281v30l98 19l-62 174h-234l-60 -168l76 -25v-30h-212v31l81 27l217 569q-30 10 -47.5 36t-17.5 59q0 39 30.5 69.5t75.5 30.5t72.5 -29t27.5 -71q0 -29 -17.5 -54.5t-45.5 -37.5zM274 721q0 -36 18 -56.5t44 -20.5q25 0 42 20.5t17 57.5t-17.5 56.5
t-43.5 19.5t-43 -20t-17 -57zM307 538l-97 -271h203l-98 271h-8z" />
    <glyph glyph-name="AE" unicode="&#xc6;" horiz-adv-x="970" 
d="M236 251l-119 -196l80 -24v-31h-219v31l81 27l323 524l-103 25v30h585l24 -169l-19 -7l-64 79q-26 32 -46 41t-65 9h-132v-248h59q46 0 66.5 17t34.5 69l9 33h25v-279h-25l-9 31q-15 52 -35.5 69.5t-65.5 17.5h-59v-252h178q44 0 62.5 8t37.5 36l74 105l20 -4l-27 -193
h-552v31l109 19v201h-228zM464 295v297h-21l-181 -297h202z" />
    <glyph glyph-name="Ccedilla" unicode="&#xc7;" horiz-adv-x="679" 
d="M158 325q0 -143 69.5 -219.5t181.5 -76.5q45 0 79 15l107 133l21 -7l-19 -132q-85 -46 -171 -52l-74 -62q35 -5 60 -28t25 -61q0 -44 -33 -72t-81 -28q-36 0 -57 13t-21 31q0 32 30 32q13 0 21.5 -9t8.5 -21q0 -7 -5 -19q9 -3 26 -3q23 0 40 16.5t17 44.5t-18.5 44
t-50.5 16q-6 0 -23 -3l-16 18l107 90q-151 2 -244 91.5t-93 238.5q0 148 98.5 242.5t236.5 94.5q82 0 154 -32l31 35h28l8 -214l-28 -2q-47 88 -95.5 131t-114.5 43q-90 0 -147.5 -79t-57.5 -209z" />
    <glyph glyph-name="Egrave" unicode="&#xc8;" horiz-adv-x="646" 
d="M370 724l-20 -14l-36.5 36l-38 38l-27.5 29.5t-22 26.5q-12 20 -9 38t19 29q16 10 34 5t30 -23q21 -32 70 -165zM540 637l24 -169l-19 -7l-64 79q-26 32 -46 41t-65 9h-132v-248h59q46 0 66.5 17t34.5 69l9 33h25v-279h-25l-9 31q-15 52 -35.5 69.5t-65.5 17.5h-59v-252
h178q44 0 62.5 8t37.5 36l74 105l20 -4l-27 -193h-552v31l109 19v537l-109 19v31h509z" />
    <glyph glyph-name="Eacute" unicode="&#xc9;" horiz-adv-x="646" 
d="M403 907q16 -11 19 -29t-9 -38q-7 -10 -22 -26.5l-27.5 -29.5l-38 -38l-36.5 -36l-20 14q50 137 69 165q13 18 31 23t34 -5zM540 637l24 -169l-19 -7l-64 79q-26 32 -46 41t-65 9h-132v-248h59q46 0 66.5 17t34.5 69l9 33h25v-279h-25l-9 31q-15 52 -35.5 69.5
t-65.5 17.5h-59v-252h178q44 0 62.5 8t37.5 36l74 105l20 -4l-27 -193h-552v31l109 19v537l-109 19v31h509z" />
    <glyph glyph-name="Ecircumflex" unicode="&#xca;" horiz-adv-x="646" 
d="M323 810l-108 -108l-22 19l118 177h31l110 -177l-22 -19zM540 637l24 -169l-19 -7l-64 79q-26 32 -46 41t-65 9h-132v-248h59q46 0 66.5 17t34.5 69l9 33h25v-279h-25l-9 31q-15 52 -35.5 69.5t-65.5 17.5h-59v-252h178q44 0 62.5 8t37.5 36l74 105l20 -4l-27 -193h-552
v31l109 19v537l-109 19v31h509z" />
    <glyph glyph-name="Edieresis" unicode="&#xcb;" horiz-adv-x="646" 
d="M411 725q-24 0 -39.5 16t-15.5 40q0 25 17.5 43t43.5 18q24 0 39 -16t15 -40q0 -25 -17 -43t-43 -18zM223 725q-24 0 -39 16t-15 40q0 25 17 43t43 18q24 0 39.5 -16t15.5 -40q0 -25 -17.5 -43t-43.5 -18zM540 637l24 -169l-19 -7l-64 79q-26 32 -46 41t-65 9h-132v-248
h59q46 0 66.5 17t34.5 69l9 33h25v-279h-25l-9 31q-15 52 -35.5 69.5t-65.5 17.5h-59v-252h178q44 0 62.5 8t37.5 36l74 105l20 -4l-27 -193h-552v31l109 19v537l-109 19v31h509z" />
    <glyph glyph-name="Igrave" unicode="&#xcc;" horiz-adv-x="408" 
d="M243 729l-20 -14l-36.5 36l-38 38l-27.5 29.5t-22 26.5q-12 20 -9 38t19 29q16 10 34 5t30 -23q21 -32 70 -165zM253 50l112 -19v-31h-323v31l113 19v537l-113 19v31h323v-31l-112 -19v-537z" />
    <glyph glyph-name="Iacute" unicode="&#xcd;" horiz-adv-x="408" 
d="M289 912q16 -11 19 -29t-9 -38q-7 -10 -22 -26.5l-27.5 -29.5l-38 -38l-36.5 -36l-20 14q50 137 69 165q13 18 31 23t34 -5zM253 50l112 -19v-31h-323v31l113 19v537l-113 19v31h323v-31l-112 -19v-537z" />
    <glyph glyph-name="Icircumflex" unicode="&#xce;" horiz-adv-x="408" 
d="M206 817l-108 -108l-22 19l118 177h31l110 -177l-22 -19zM253 50l112 -19v-31h-323v31l113 19v537l-113 19v31h323v-31l-112 -19v-537z" />
    <glyph glyph-name="Idieresis" unicode="&#xcf;" horiz-adv-x="408" 
d="M297 730q-24 0 -39.5 16t-15.5 40q0 25 17.5 43t43.5 18q24 0 39 -16t15 -40q0 -25 -17 -43t-43 -18zM109 730q-24 0 -39 16t-15 40q0 25 17 43t43 18q24 0 39.5 -16t15.5 -40q0 -25 -17.5 -43t-43.5 -18zM253 50l112 -19v-31h-323v31l113 19v537l-113 19v31h323v-31
l-112 -19v-537z" />
    <glyph glyph-name="Eth" unicode="&#xd0;" horiz-adv-x="744" 
d="M699 319q0 -137 -99 -228t-254 -91h-310v31l110 19v256h-96v49h96v232l-110 19v31h316q160 0 253.5 -89.5t93.5 -228.5zM586 319q0 143 -69 208t-185 65h-90v-237h127v-49h-127v-261h112q232 0 232 274z" />
    <glyph glyph-name="Ntilde" unicode="&#xd1;" horiz-adv-x="765" 
d="M238 726q12 64 31.5 92.5t55.5 28.5q27 0 76.5 -24t63.5 -24q13 0 22 12.5t25 48.5l29 -7q-12 -64 -31.5 -92.5t-55.5 -28.5q-27 0 -76.5 24t-63.5 24q-13 0 -22 -12.5t-25 -48.5zM135 59v518l-89 27v33h209l72 -102l251 -357h11v400l-99 28v31h240v-31l-89 -28v-584h-50
l-72 102l-320 449h-12v-486l99 -28v-31h-240v31z" />
    <glyph glyph-name="Ograve" unicode="&#xd2;" horiz-adv-x="714" 
d="M380 729l-20 -14l-36.5 36l-38 38l-27.5 29.5t-22 26.5q-12 20 -9 38t19 29q16 10 34 5t30 -23q21 -32 70 -165zM667 319q0 -140 -87 -237t-227 -97q-145 0 -226.5 95.5t-81.5 238.5q0 139 87 236t227 97q145 0 226.5 -95.5t81.5 -237.5zM554 319q0 142 -63 220t-146 78
q-79 0 -133 -70t-54 -228q0 -82 18 -142.5t49.5 -93.5t66.5 -48t75 -15q76 0 131.5 77.5t55.5 221.5z" />
    <glyph glyph-name="Oacute" unicode="&#xd3;" horiz-adv-x="714" 
d="M437 912q16 -11 19 -29t-9 -38q-7 -10 -22 -26.5l-27.5 -29.5l-38 -38l-36.5 -36l-20 14q50 137 69 165q13 18 31 23t34 -5zM667 319q0 -140 -87 -237t-227 -97q-145 0 -226.5 95.5t-81.5 238.5q0 139 87 236t227 97q145 0 226.5 -95.5t81.5 -237.5zM554 319
q0 142 -63 220t-146 78q-79 0 -133 -70t-54 -228q0 -82 18 -142.5t49.5 -93.5t66.5 -48t75 -15q76 0 131.5 77.5t55.5 221.5z" />
    <glyph glyph-name="Ocircumflex" unicode="&#xd4;" horiz-adv-x="714" 
d="M354 817l-108 -108l-22 19l118 177h31l110 -177l-22 -19zM667 319q0 -140 -87 -237t-227 -97q-145 0 -226.5 95.5t-81.5 238.5q0 139 87 236t227 97q145 0 226.5 -95.5t81.5 -237.5zM554 319q0 142 -63 220t-146 78q-79 0 -133 -70t-54 -228q0 -82 18 -142.5t49.5 -93.5
t66.5 -48t75 -15q76 0 131.5 77.5t55.5 221.5z" />
    <glyph glyph-name="Otilde" unicode="&#xd5;" horiz-adv-x="714" 
d="M205 726q12 64 31.5 92.5t55.5 28.5q27 0 76.5 -24t63.5 -24q13 0 22 12.5t25 48.5l29 -7q-12 -64 -31.5 -92.5t-55.5 -28.5q-27 0 -76.5 24t-63.5 24q-13 0 -22 -12.5t-25 -48.5zM667 319q0 -140 -87 -237t-227 -97q-145 0 -226.5 95.5t-81.5 238.5q0 139 87 236t227 97
q145 0 226.5 -95.5t81.5 -237.5zM554 319q0 142 -63 220t-146 78q-79 0 -133 -70t-54 -228q0 -82 18 -142.5t49.5 -93.5t66.5 -48t75 -15q76 0 131.5 77.5t55.5 221.5z" />
    <glyph glyph-name="Odieresis" unicode="&#xd6;" horiz-adv-x="714" 
d="M445 730q-24 0 -39.5 16t-15.5 40q0 25 17.5 43t43.5 18q24 0 39 -16t15 -40q0 -25 -17 -43t-43 -18zM257 730q-24 0 -39 16t-15 40q0 25 17 43t43 18q24 0 39.5 -16t15.5 -40q0 -25 -17.5 -43t-43.5 -18zM667 319q0 -140 -87 -237t-227 -97q-145 0 -226.5 95.5
t-81.5 238.5q0 139 87 236t227 97q145 0 226.5 -95.5t81.5 -237.5zM554 319q0 142 -63 220t-146 78q-79 0 -133 -70t-54 -228q0 -82 18 -142.5t49.5 -93.5t66.5 -48t75 -15q76 0 131.5 77.5t55.5 221.5z" />
    <glyph glyph-name="multiply" unicode="&#xd7;" horiz-adv-x="520" 
d="M296 305l141 -144l-39 -38l-138 144l-138 -144l-39 38l141 144l-141 144l39 38l138 -144l138 144l39 -38z" />
    <glyph glyph-name="Oslash" unicode="&#xd8;" horiz-adv-x="714" 
d="M667 319q0 -140 -87 -237t-227 -97q-114 0 -197 70l-75 -87l-27 22l77 90q-86 95 -86 239q0 139 87 236t227 97q115 0 197 -71l75 88l28 -23l-77 -91q85 -93 85 -236zM187 147l317 373q-30 48 -72 72.5t-87 24.5q-79 0 -133 -70t-54 -228q0 -103 29 -172zM523 486
l-319 -374q56 -92 163 -92q76 0 131.5 77.5t55.5 221.5q0 95 -31 167z" />
    <glyph glyph-name="Ugrave" unicode="&#xd9;" horiz-adv-x="748" 
d="M449 729l-20 -14l-36.5 36l-38 38l-27.5 29.5t-22 26.5q-12 20 -9 38t19 29q16 10 34 5t30 -23q21 -32 70 -165zM578 578l-89 28v31h229v-31l-89 -28v-356q0 -104 -66 -171.5t-182 -67.5q-123 0 -189.5 57t-66.5 170v377l-99 19v31h308v-31l-109 -19v-362
q0 -188 185 -188q80 0 124 52.5t44 137.5v351z" />
    <glyph glyph-name="Uacute" unicode="&#xda;" horiz-adv-x="748" 
d="M503 912q16 -11 19 -29t-9 -38q-7 -10 -22 -26.5l-27.5 -29.5l-38 -38l-36.5 -36l-20 14q50 137 69 165q13 18 31 23t34 -5zM578 578l-89 28v31h229v-31l-89 -28v-356q0 -104 -66 -171.5t-182 -67.5q-123 0 -189.5 57t-66.5 170v377l-99 19v31h308v-31l-109 -19v-362
q0 -188 185 -188q80 0 124 52.5t44 137.5v351z" />
    <glyph glyph-name="Ucircumflex" unicode="&#xdb;" horiz-adv-x="748" 
d="M412 817l-108 -108l-22 19l118 177h31l110 -177l-22 -19zM578 578l-89 28v31h229v-31l-89 -28v-356q0 -104 -66 -171.5t-182 -67.5q-123 0 -189.5 57t-66.5 170v377l-99 19v31h308v-31l-109 -19v-362q0 -188 185 -188q80 0 124 52.5t44 137.5v351z" />
    <glyph glyph-name="Udieresis" unicode="&#xdc;" horiz-adv-x="748" 
d="M497 730q-24 0 -39.5 16t-15.5 40q0 25 17.5 43t43.5 18q24 0 39 -16t15 -40q0 -25 -17 -43t-43 -18zM309 730q-24 0 -39 16t-15 40q0 25 17 43t43 18q24 0 39.5 -16t15.5 -40q0 -25 -17.5 -43t-43.5 -18zM578 578l-89 28v31h229v-31l-89 -28v-356q0 -104 -66 -171.5
t-182 -67.5q-123 0 -189.5 57t-66.5 170v377l-99 19v31h308v-31l-109 -19v-362q0 -188 185 -188q80 0 124 52.5t44 137.5v351z" />
    <glyph glyph-name="Yacute" unicode="&#xdd;" horiz-adv-x="658" 
d="M468 912q16 -11 19 -29t-9 -38q-7 -10 -22 -26.5l-27.5 -29.5l-38 -38l-36.5 -36l-20 14q50 137 69 165q13 18 31 23t34 -5zM582 578l-196 -296v-232l116 -19v-31h-330v31l116 19v215l-201 318l-90 23v31h290v-31l-91 -18l166 -273l161 266l-88 25v31h229v-31z" />
    <glyph glyph-name="Thorn" unicode="&#xde;" horiz-adv-x="605" 
d="M558 325q0 -83 -61 -138t-157 -55q-46 0 -104 9v-91l112 -19v-31h-319v31l109 19v537l-109 19v31h320v-31l-113 -19v-91q48 8 86 8q110 0 173 -49t63 -130zM450 321q0 72 -38.5 107.5t-106.5 35.5q-39 0 -69 -6v-278q30 -5 69 -5q145 0 145 146z" />
    <glyph glyph-name="germandbls" unicode="&#xdf;" horiz-adv-x="608" 
d="M570 133q0 -65 -41 -106t-110 -41q-49 0 -81 19.5t-32 52.5q0 20 13 34t32 14q58 0 52 -77q13 -10 35 -10q27 0 45 21.5t18 58.5q0 53 -48.5 101.5t-172.5 108.5v15q82 87 107.5 133.5t25.5 103.5q0 55 -30.5 90.5t-78.5 35.5q-100 0 -100 -155v-487l49 -18v-27h-205v27
l71 19v347h-90v26l90 26v32q0 130 86 205q69 59 140 59q67 0 110.5 -45t43.5 -111q0 -60 -32 -110.5t-101 -108.5v-11q107 -55 155.5 -105.5t48.5 -116.5z" />
    <glyph glyph-name="agrave" unicode="&#xe0;" horiz-adv-x="476" 
d="M278 543l-20 -14l-36.5 36l-38 38l-27.5 29.5t-22 26.5q-12 20 -9 38t19 29q16 10 34 5t30 -23q21 -32 70 -165zM392 331v-256q0 -23 17.5 -32t65.5 -6l3 -18q-15 -11 -47.5 -20.5t-57.5 -9.5q-29 0 -43.5 16.5t-16.5 55.5l-9 2q-74 -74 -144 -74q-50 0 -80 29t-30 75
q0 69 70.5 111t188.5 52v55q0 58 -24 81t-78 23q-40 0 -74 -19q37 -23 37 -53q0 -22 -15 -36t-37 -14q-23 0 -38 14t-15 37q0 50 63 84.5t138 34.5q64 0 95 -32t31 -100zM309 93v130q-89 -1 -133 -28.5t-44 -73.5q0 -34 18.5 -52.5t51.5 -18.5q47 0 107 43z" />
    <glyph glyph-name="aacute" unicode="&#xe1;" horiz-adv-x="476" 
d="M332 726q16 -11 19 -29t-9 -38q-7 -10 -22 -26.5l-27.5 -29.5l-38 -38l-36.5 -36l-20 14q50 137 69 165q13 18 31 23t34 -5zM392 331v-256q0 -23 17.5 -32t65.5 -6l3 -18q-15 -11 -47.5 -20.5t-57.5 -9.5q-29 0 -43.5 16.5t-16.5 55.5l-9 2q-74 -74 -144 -74
q-50 0 -80 29t-30 75q0 69 70.5 111t188.5 52v55q0 58 -24 81t-78 23q-40 0 -74 -19q37 -23 37 -53q0 -22 -15 -36t-37 -14q-23 0 -38 14t-15 37q0 50 63 84.5t138 34.5q64 0 95 -32t31 -100zM309 93v130q-89 -1 -133 -28.5t-44 -73.5q0 -34 18.5 -52.5t51.5 -18.5
q47 0 107 43z" />
    <glyph glyph-name="acircumflex" unicode="&#xe2;" horiz-adv-x="476" 
d="M247 631l-108 -108l-22 19l118 177h31l110 -177l-22 -19zM392 331v-256q0 -23 17.5 -32t65.5 -6l3 -18q-15 -11 -47.5 -20.5t-57.5 -9.5q-29 0 -43.5 16.5t-16.5 55.5l-9 2q-74 -74 -144 -74q-50 0 -80 29t-30 75q0 69 70.5 111t188.5 52v55q0 58 -24 81t-78 23
q-40 0 -74 -19q37 -23 37 -53q0 -22 -15 -36t-37 -14q-23 0 -38 14t-15 37q0 50 63 84.5t138 34.5q64 0 95 -32t31 -100zM309 93v130q-89 -1 -133 -28.5t-44 -73.5q0 -34 18.5 -52.5t51.5 -18.5q47 0 107 43z" />
    <glyph glyph-name="atilde" unicode="&#xe3;" horiz-adv-x="476" 
d="M89 540q12 64 31.5 92.5t55.5 28.5q27 0 76.5 -24t63.5 -24q13 0 22 12.5t25 48.5l29 -7q-12 -64 -31.5 -92.5t-55.5 -28.5q-27 0 -76.5 24t-63.5 24q-13 0 -22 -12.5t-25 -48.5zM392 331v-256q0 -23 17.5 -32t65.5 -6l3 -18q-15 -11 -47.5 -20.5t-57.5 -9.5
q-29 0 -43.5 16.5t-16.5 55.5l-9 2q-74 -74 -144 -74q-50 0 -80 29t-30 75q0 69 70.5 111t188.5 52v55q0 58 -24 81t-78 23q-40 0 -74 -19q37 -23 37 -53q0 -22 -15 -36t-37 -14q-23 0 -38 14t-15 37q0 50 63 84.5t138 34.5q64 0 95 -32t31 -100zM309 93v130
q-89 -1 -133 -28.5t-44 -73.5q0 -34 18.5 -52.5t51.5 -18.5q47 0 107 43z" />
    <glyph glyph-name="adieresis" unicode="&#xe4;" horiz-adv-x="476" 
d="M329 544q-24 0 -39.5 16t-15.5 40q0 25 17.5 43t43.5 18q24 0 39 -16t15 -40q0 -25 -17 -43t-43 -18zM141 544q-24 0 -39 16t-15 40q0 25 17 43t43 18q24 0 39.5 -16t15.5 -40q0 -25 -17.5 -43t-43.5 -18zM392 331v-256q0 -23 17.5 -32t65.5 -6l3 -18
q-15 -11 -47.5 -20.5t-57.5 -9.5q-29 0 -43.5 16.5t-16.5 55.5l-9 2q-74 -74 -144 -74q-50 0 -80 29t-30 75q0 69 70.5 111t188.5 52v55q0 58 -24 81t-78 23q-40 0 -74 -19q37 -23 37 -53q0 -22 -15 -36t-37 -14q-23 0 -38 14t-15 37q0 50 63 84.5t138 34.5q64 0 95 -32
t31 -100zM309 93v130q-89 -1 -133 -28.5t-44 -73.5q0 -34 18.5 -52.5t51.5 -18.5q47 0 107 43z" />
    <glyph glyph-name="aring" unicode="&#xe5;" horiz-adv-x="476" 
d="M346 642q0 -39 -30 -69.5t-75 -30.5t-72.5 28.5t-27.5 71.5q0 39 30 69.5t75 30.5t72.5 -28.5t27.5 -71.5zM392 331v-256q0 -23 17.5 -32t65.5 -6l3 -18q-15 -11 -47.5 -20.5t-57.5 -9.5q-29 0 -43.5 16.5t-16.5 55.5l-9 2q-74 -74 -144 -74q-50 0 -80 29t-30 75
q0 69 70.5 111t188.5 52v55q0 58 -24 81t-78 23q-40 0 -74 -19q37 -23 37 -53q0 -22 -15 -36t-37 -14q-23 0 -38 14t-15 37q0 50 63 84.5t138 34.5q64 0 95 -32t31 -100zM304 642q0 37 -18 57t-44 20q-25 0 -42.5 -20.5t-17.5 -57.5q0 -36 18.5 -56.5t43.5 -20.5t42.5 20.5
t17.5 57.5zM309 93v130q-89 -1 -133 -28.5t-44 -73.5q0 -34 18.5 -52.5t51.5 -18.5q47 0 107 43z" />
    <glyph glyph-name="ae" unicode="&#xe6;" horiz-adv-x="749" 
d="M712 245h-317q-1 -93 40.5 -143.5t125.5 -50.5q56 0 133 47l13 -24q-96 -90 -183 -90q-117 0 -175 92h-9q-92 -87 -175 -87q-53 0 -84 28t-31 76q0 69 70.5 111t188.5 52v54q0 57 -24 80.5t-78 23.5q-40 0 -74 -19q37 -23 37 -53q0 -22 -15 -36t-37 -14q-23 0 -38 14
t-15 37q0 50 62.5 85t135.5 35q85 0 112 -73q61 74 148 74q90 0 139.5 -62t49.5 -157zM515 430q-49 0 -81.5 -42t-37.5 -110l220 7q-6 145 -101 145zM331 106q-21 44 -23 117q-88 -1 -132 -28.5t-44 -73.5q0 -34 19 -52.5t54 -18.5q60 0 126 56z" />
    <glyph glyph-name="ccedilla" unicode="&#xe7;" horiz-adv-x="470" 
d="M127 229q0 -84 47 -133t119 -49q55 0 128 41l15 -18q-46 -53 -105 -73l-85 -73q34 -5 59 -28t25 -61q0 -44 -33 -72t-81 -28q-36 0 -57 13t-21 31q0 32 30 32q13 0 21.5 -9t8.5 -21q0 -7 -5 -19q10 -3 26 -3q23 0 40 16.5t17 44.5t-18.5 44t-50.5 16q-7 0 -23 -3l-16 18
l107 90q-5 -1 -16 -1q-98 0 -159 62.5t-61 163.5q0 110 70 182t178 72q64 0 102 -27t38 -67q0 -28 -16 -45.5t-40 -17.5q-27 0 -43 18t-16 43q0 32 19 54q-23 6 -44 6q-66 0 -113 -52t-47 -147z" />
    <glyph glyph-name="egrave" unicode="&#xe8;" horiz-adv-x="483" 
d="M292 543l-20 -14l-36.5 36l-38 38l-27.5 29.5t-22 26.5q-12 20 -9 38t19 29q16 10 34 5t30 -23q21 -32 70 -165zM446 245h-317q-1 -93 40.5 -143.5t125.5 -50.5q56 0 133 47l13 -24q-95 -90 -183 -90q-96 0 -157.5 64.5t-61.5 168.5q0 105 64 176t157 71q90 0 138 -62
t48 -157zM130 278l220 7q-6 145 -101 145q-49 0 -81.5 -42t-37.5 -110z" />
    <glyph glyph-name="eacute" unicode="&#xe9;" horiz-adv-x="483" 
d="M336 726q16 -11 19 -29t-9 -38q-7 -10 -22 -26.5l-27.5 -29.5l-38 -38l-36.5 -36l-20 14q50 137 69 165q13 18 31 23t34 -5zM446 245h-317q-1 -93 40.5 -143.5t125.5 -50.5q56 0 133 47l13 -24q-95 -90 -183 -90q-96 0 -157.5 64.5t-61.5 168.5q0 105 64 176t157 71
q90 0 138 -62t48 -157zM130 278l220 7q-6 145 -101 145q-49 0 -81.5 -42t-37.5 -110z" />
    <glyph glyph-name="ecircumflex" unicode="&#xea;" horiz-adv-x="483" 
d="M256 631l-108 -108l-22 19l118 177h31l110 -177l-22 -19zM446 245h-317q-1 -93 40.5 -143.5t125.5 -50.5q56 0 133 47l13 -24q-95 -90 -183 -90q-96 0 -157.5 64.5t-61.5 168.5q0 105 64 176t157 71q90 0 138 -62t48 -157zM130 278l220 7q-6 145 -101 145
q-49 0 -81.5 -42t-37.5 -110z" />
    <glyph glyph-name="edieresis" unicode="&#xeb;" horiz-adv-x="483" 
d="M350 544q-24 0 -39.5 16t-15.5 40q0 25 17.5 43t43.5 18q24 0 39 -16t15 -40q0 -25 -17 -43t-43 -18zM162 544q-24 0 -39 16t-15 40q0 25 17 43t43 18q24 0 39.5 -16t15.5 -40q0 -25 -17.5 -43t-43.5 -18zM446 245h-317q-1 -93 40.5 -143.5t125.5 -50.5q56 0 133 47
l13 -24q-95 -90 -183 -90q-96 0 -157.5 64.5t-61.5 168.5q0 105 64 176t157 71q90 0 138 -62t48 -157zM130 278l220 7q-6 145 -101 145q-49 0 -81.5 -42t-37.5 -110z" />
    <glyph glyph-name="igrave" unicode="&#xec;" horiz-adv-x="289" 
d="M179 543l-20 -14l-36.5 36l-38 38l-27.5 29.5t-22 26.5q-12 20 -9 38t19 29q16 10 34 5t30 -23q21 -32 70 -165zM109 46v327l-70 33v23l151 36l4 -3v-416l67 -19v-27h-223v27z" />
    <glyph glyph-name="iacute" unicode="&#xed;" horiz-adv-x="289" 
d="M234 726q16 -11 19 -29t-9 -38q-7 -10 -22 -26.5l-27.5 -29.5l-38 -38l-36.5 -36l-20 14q50 137 69 165q13 18 31 23t34 -5zM109 46v327l-70 33v23l151 36l4 -3v-416l67 -19v-27h-223v27z" />
    <glyph glyph-name="icircumflex" unicode="&#xee;" horiz-adv-x="289" 
d="M145 631l-108 -108l-22 19l118 177h31l110 -177l-22 -19zM109 46v327l-70 33v23l151 36l4 -3v-416l67 -19v-27h-223v27z" />
    <glyph glyph-name="idieresis" unicode="&#xef;" horiz-adv-x="289" 
d="M234 544q-24 0 -39.5 16t-15.5 40q0 25 17.5 43t43.5 18q24 0 39 -16t15 -40q0 -25 -17 -43t-43 -18zM46 544q-24 0 -39 16t-15 40q0 25 17 43t43 18q24 0 39.5 -16t15.5 -40q0 -25 -17.5 -43t-43.5 -18zM109 46v327l-70 33v23l151 36l4 -3v-416l67 -19v-27h-223v27z" />
    <glyph glyph-name="eth" unicode="&#xf0;" horiz-adv-x="548" 
d="M504 293q0 -136 -68.5 -222.5t-171.5 -86.5q-99 0 -162 65.5t-63 174.5q0 98 64 168.5t160 70.5q60 0 111 -32l9 4q-25 84 -85 153l-100 -44l-17 43l84 36q-52 49 -126 90l12 28q99 -33 174 -92l116 50l17 -41l-94 -42q140 -133 140 -323zM408 258q0 75 -18 137
q-46 18 -98 18q-67 0 -111.5 -51.5t-44.5 -144.5q0 -89 43 -140t99 -51q63 0 96.5 59t33.5 173z" />
    <glyph glyph-name="ntilde" unicode="&#xf1;" horiz-adv-x="566" 
d="M129 540q12 64 31.5 92.5t55.5 28.5q27 0 76.5 -24t63.5 -24q13 0 22 12.5t25 48.5l29 -7q-12 -64 -31.5 -92.5t-55.5 -28.5q-27 0 -76.5 24t-63.5 24q-13 0 -22 -12.5t-25 -48.5zM479 325v-279l71 -19v-27h-224v27l68 19v243q0 110 -89 110q-49 0 -116 -46v-307l67 -19
v-27h-223v27l71 19v327l-70 33v23l145 36l9 -8l-7 -75l9 -2q90 84 163 84q60 0 93 -37.5t33 -101.5z" />
    <glyph glyph-name="ograve" unicode="&#xf2;" horiz-adv-x="527" 
d="M311 543l-20 -14l-36.5 36l-38 38l-27.5 29.5t-22 26.5q-12 20 -9 38t19 29q16 10 34 5t30 -23q21 -32 70 -165zM488 227q0 -100 -63 -171.5t-168 -71.5q-102 0 -160 67t-58 173q0 100 63.5 170t168.5 70q103 0 160 -65.5t57 -171.5zM391 227q0 101 -35.5 150.5
t-95.5 49.5q-55 0 -89.5 -51.5t-34.5 -154.5q0 -100 37 -150t94 -50q58 0 91 50.5t33 155.5z" />
    <glyph glyph-name="oacute" unicode="&#xf3;" horiz-adv-x="527" 
d="M348 726q16 -11 19 -29t-9 -38q-7 -10 -22 -26.5l-27.5 -29.5l-38 -38l-36.5 -36l-20 14q50 137 69 165q13 18 31 23t34 -5zM488 227q0 -100 -63 -171.5t-168 -71.5q-102 0 -160 67t-58 173q0 100 63.5 170t168.5 70q103 0 160 -65.5t57 -171.5zM391 227
q0 101 -35.5 150.5t-95.5 49.5q-55 0 -89.5 -51.5t-34.5 -154.5q0 -100 37 -150t94 -50q58 0 91 50.5t33 155.5z" />
    <glyph glyph-name="ocircumflex" unicode="&#xf4;" horiz-adv-x="527" 
d="M262 631l-108 -108l-22 19l118 177h31l110 -177l-22 -19zM488 227q0 -100 -63 -171.5t-168 -71.5q-102 0 -160 67t-58 173q0 100 63.5 170t168.5 70q103 0 160 -65.5t57 -171.5zM391 227q0 101 -35.5 150.5t-95.5 49.5q-55 0 -89.5 -51.5t-34.5 -154.5q0 -100 37 -150
t94 -50q58 0 91 50.5t33 155.5z" />
    <glyph glyph-name="otilde" unicode="&#xf5;" horiz-adv-x="527" 
d="M108 540q12 64 31.5 92.5t55.5 28.5q27 0 76.5 -24t63.5 -24q13 0 22 12.5t25 48.5l29 -7q-12 -64 -31.5 -92.5t-55.5 -28.5q-27 0 -76.5 24t-63.5 24q-13 0 -22 -12.5t-25 -48.5zM488 227q0 -100 -63 -171.5t-168 -71.5q-102 0 -160 67t-58 173q0 100 63.5 170t168.5 70
q103 0 160 -65.5t57 -171.5zM391 227q0 101 -35.5 150.5t-95.5 49.5q-55 0 -89.5 -51.5t-34.5 -154.5q0 -100 37 -150t94 -50q58 0 91 50.5t33 155.5z" />
    <glyph glyph-name="odieresis" unicode="&#xf6;" horiz-adv-x="527" 
d="M353 544q-24 0 -39.5 16t-15.5 40q0 25 17.5 43t43.5 18q24 0 39 -16t15 -40q0 -25 -17 -43t-43 -18zM165 544q-24 0 -39 16t-15 40q0 25 17 43t43 18q24 0 39.5 -16t15.5 -40q0 -25 -17.5 -43t-43.5 -18zM488 227q0 -100 -63 -171.5t-168 -71.5q-102 0 -160 67t-58 173
q0 100 63.5 170t168.5 70q103 0 160 -65.5t57 -171.5zM391 227q0 101 -35.5 150.5t-95.5 49.5q-55 0 -89.5 -51.5t-34.5 -154.5q0 -100 37 -150t94 -50q58 0 91 50.5t33 155.5z" />
    <glyph glyph-name="divide" unicode="&#xf7;" horiz-adv-x="520" 
d="M259 517q24 0 41 -17t17 -41t-17 -41t-41 -17t-41 17t-17 41t17 41t41 17zM472 281h-425v51h425v-51zM259 212q24 0 41 -17t17 -41t-17 -41t-41 -17t-41 17t-17 41t17 41t41 17z" />
    <glyph glyph-name="oslash" unicode="&#xf8;" horiz-adv-x="527" 
d="M430 395q58 -66 58 -168q0 -100 -63 -171.5t-168 -71.5q-78 0 -134 45l-47 -56l-27 22l49 58q-59 69 -59 171q0 100 63.5 170t168.5 70q77 0 134 -44l46 55l28 -23zM361 368q-33 59 -101 59q-56 0 -90.5 -51t-34.5 -155q0 -58 15 -106zM392 227q0 61 -14 105l-212 -252
q36 -59 101 -59q58 0 91.5 50.5t33.5 155.5z" />
    <glyph glyph-name="ugrave" unicode="&#xf9;" horiz-adv-x="561" 
d="M309 543l-20 -14l-36.5 36l-38 38l-27.5 29.5t-22 26.5q-12 20 -9 38t19 29q16 10 34 5t30 -23q21 -32 70 -165zM463 66l70 -23v-23l-145 -36l-9 8l7 74l-9 2q-48 -44 -84 -64t-78 -20q-62 0 -94.5 40t-32.5 102v254l-70 31v18l146 36l9 -8v-295q0 -112 88 -112
q50 0 117 45v285l-71 31v18l147 36l9 -8v-391z" />
    <glyph glyph-name="uacute" unicode="&#xfa;" horiz-adv-x="561" 
d="M362 726q16 -11 19 -29t-9 -38q-7 -10 -22 -26.5l-27.5 -29.5l-38 -38l-36.5 -36l-20 14q50 137 69 165q13 18 31 23t34 -5zM463 66l70 -23v-23l-145 -36l-9 8l7 74l-9 2q-48 -44 -84 -64t-78 -20q-62 0 -94.5 40t-32.5 102v254l-70 31v18l146 36l9 -8v-295
q0 -112 88 -112q50 0 117 45v285l-71 31v18l147 36l9 -8v-391z" />
    <glyph glyph-name="ucircumflex" unicode="&#xfb;" horiz-adv-x="561" 
d="M271 631l-108 -108l-22 19l118 177h31l110 -177l-22 -19zM463 66l70 -23v-23l-145 -36l-9 8l7 74l-9 2q-48 -44 -84 -64t-78 -20q-62 0 -94.5 40t-32.5 102v254l-70 31v18l146 36l9 -8v-295q0 -112 88 -112q50 0 117 45v285l-71 31v18l147 36l9 -8v-391z" />
    <glyph glyph-name="udieresis" unicode="&#xfc;" horiz-adv-x="561" 
d="M358 544q-24 0 -39.5 16t-15.5 40q0 25 17.5 43t43.5 18q24 0 39 -16t15 -40q0 -25 -17 -43t-43 -18zM170 544q-24 0 -39 16t-15 40q0 25 17 43t43 18q24 0 39.5 -16t15.5 -40q0 -25 -17.5 -43t-43.5 -18zM463 66l70 -23v-23l-145 -36l-9 8l7 74l-9 2q-48 -44 -84 -64
t-78 -20q-62 0 -94.5 40t-32.5 102v254l-70 31v18l146 36l9 -8v-295q0 -112 88 -112q50 0 117 45v285l-71 31v18l147 36l9 -8v-391z" />
    <glyph glyph-name="yacute" unicode="&#xfd;" horiz-adv-x="492" 
d="M373 726q16 -11 19 -29t-9 -38q-7 -10 -22 -26.5l-27.5 -29.5l-38 -38l-36.5 -36l-20 14q50 137 69 165q13 18 31 23t34 -5zM427 389l-190 -471q-29 -70 -60.5 -99t-74.5 -29q-34 0 -52.5 16.5t-18.5 40.5q0 21 15.5 35.5t37.5 14.5q21 0 36.5 -11.5t32.5 -35.5
q28 25 50 79l28 64l-169 406l-63 22v27h221v-26l-60 -21l112 -303h6l101 295l-70 29v26h188v-27z" />
    <glyph glyph-name="thorn" unicode="&#xfe;" horiz-adv-x="535" 
d="M493 236q0 -101 -71 -176.5t-177 -75.5q-40 0 -84 11v-153l86 -25v-27h-242v27l71 25v802l-78 34v24l154 39l9 -7v-337l9 -2q38 36 69 52.5t72 16.5q74 0 128 -62t54 -166zM405 210q0 90 -39.5 139t-107.5 49q-49 0 -97 -36v-289q54 -51 115 -51q56 0 92.5 46.5
t36.5 141.5z" />
    <glyph glyph-name="ydieresis" unicode="&#xff;" horiz-adv-x="492" 
d="M358 544q-24 0 -39.5 16t-15.5 40q0 25 17.5 43t43.5 18q24 0 39 -16t15 -40q0 -25 -17 -43t-43 -18zM170 544q-24 0 -39 16t-15 40q0 25 17 43t43 18q24 0 39.5 -16t15.5 -40q0 -25 -17.5 -43t-43.5 -18zM427 389l-190 -471q-29 -70 -60.5 -99t-74.5 -29
q-34 0 -52.5 16.5t-18.5 40.5q0 21 15.5 35.5t37.5 14.5q21 0 36.5 -11.5t32.5 -35.5q28 25 50 79l28 64l-169 406l-63 22v27h221v-26l-60 -21l112 -303h6l101 295l-70 29v26h188v-27z" />
    <glyph glyph-name="Delta" 
d="M25 -200v1000h450v-1000h-450z" />
    <glyph glyph-name="NUL" horiz-adv-x="0" 
 />
    <glyph glyph-name="Omega" horiz-adv-x="616" 
d="M492 442h124v-49h-124v-347l86 -19v-27h-242v27l71 19v347h-203v-347l81 -19v-27h-237v27l71 19v347h-90v26l90 26v13q0 85 26.5 141t82.5 92q53 34 125 34q43 0 72.5 -14.5t40.5 -36.5q13 13 19 18q55 48 125 48q38 0 60 -16.5t22 -40.5q0 -23 -14 -37t-37 -14
q-43 0 -84 66q-34 -20 -49.5 -59t-15.5 -110v-87zM204 442h203v51q0 62 15 107q-56 3 -74 89q-67 -1 -105.5 -53t-38.5 -147v-47z" />
    <glyph glyph-name="apple" horiz-adv-x="694" 
d="M644 -200h-208l-8 14h-163l-8 -14h-207v303q14 0 23 9.5t9 22.5t-9.5 22.5t-22.5 9.5v554h100l30 79h334l29 -79h101v-921zM400 563v-172h15v78h38v14h-38v66h43v14h-58zM184 563v-172h15v79h47v-79h15v172h-15v-79h-47v79h-15zM460 394q8 -4 21 -4q31 0 31 36v137h-16
v-137q0 -22 -16 -22q-10 0 -20 6v-16zM349 438l-16 31q23 21 23 42q0 12 -7 21.5t-20 9.5q-12 0 -20 -9.5t-8 -21.5q0 -13 14 -39q-23 -18 -23 -45q0 -17 9 -28t22 -11q17 0 27 24h1l12 -24l11 8l-16 30q10 23 13 39l-13 3q-2 -9 -9 -30zM523 323v-46h8v13l7 7l16 -20h9
l-19 26l18 20h-10l-21 -24v24h-8zM488 292l10 -15h9l-12 17q10 3 10 15q0 5 -4.5 9.5t-11.5 4.5h-21v-46h8v15h12zM426 276q11 0 17.5 7t6.5 17q0 9 -7 16.5t-17 7.5t-16.5 -7.5t-6.5 -16.5q0 -10 6.5 -17t16.5 -7zM370 301l-13 22h-9l18 -29v-17h8v17l18 29h-9zM193 323
v-46h33v7h-25v13h22v7h-22v12h25v7h-33zM132 323v-46h8v32l25 -32h7v46h-8v-32l-25 32h-7zM241 323l15 -47h8l10 34h1l11 -34h8l14 47h-8l-10 -35h-1l-10 35h-8l-11 -35h-1l-10 35h-8zM327 479q-12 22 -12 32q0 19 14 19q13 0 13 -19q0 -15 -15 -32zM342 423q-6 -21 -18 -21
q-17 0 -17 27q0 18 15 33zM488 299h-12v17h11q10 0 10 -8q0 -9 -9 -9zM426 283q-15 0 -15 17q0 6 4.5 11.5t10.5 5.5q7 0 11.5 -5.5t4.5 -11.5q0 -7 -4.5 -12t-11.5 -5z" />
    <glyph glyph-name="approxequal" horiz-adv-x="875" 
d="M492 442h187l97 23l4 -3v-416l67 -19v-27h-223v27l71 19v347h-203v-347l81 -19v-27h-237v27l71 19v347h-203v-347l81 -19v-27h-237v27l71 19v347h-90v26l90 26v13q0 85 26.5 141t82.5 92q53 34 125 34q46 0 76.5 -16.5t40.5 -40.5q21 23 46 38q53 34 125 34
q56 0 88.5 -23.5t32.5 -52.5q0 -23 -12 -36t-34 -13q-61 0 -80 89q-67 -1 -105.5 -53t-38.5 -147v-62zM204 442h203v31q0 75 21 127q-61 2 -80 89q-67 -1 -105.5 -53t-38.5 -147v-47z" />
    <glyph glyph-name="greaterequal" 
d="M25 -200v1000h450v-1000h-450z" />
    <glyph glyph-name="infinity" 
d="M25 -200v1000h450v-1000h-450z" />
    <glyph glyph-name="integral" 
d="M25 -200v1000h450v-1000h-450z" />
    <glyph glyph-name="lessequal" 
d="M25 -200v1000h450v-1000h-450z" />
    <glyph glyph-name="lozenge" horiz-adv-x="780" 
d="M275 433q0 -40 -31.5 -65.5t-74.5 -25.5q-45 0 -83 18l-14 -22h-17l-4 110l16 2q29 -47 53 -66t51 -19q25 0 40.5 12t15.5 34t-17.5 33.5t-55.5 23.5q-46 14 -70.5 32.5t-24.5 56.5q0 36 29 61.5t67 25.5q35 0 69 -16l15 22h16l6 -101l-16 -2q-55 74 -93 74
q-19 0 -32 -11.5t-13 -29.5q0 -23 18 -34.5t58 -23.5q22 -6 35.5 -12t28 -16t21.5 -25t7 -36zM697 608v-229l44 -14v-15h-138v15l36 14v223h-9l-97 -252h-27l-99 252h-11v-220l34 -17v-15h-104v15l38 17v224l-38 15v16h127l17 -50l61 -157h6l60 160l15 47h129v-16z" />
    <glyph glyph-name="nbspace" horiz-adv-x="110" 
 />
    <glyph glyph-name="notequal" 
d="M25 -200v1000h450v-1000h-450z" />
    <glyph glyph-name="partialdiff" 
d="M25 -200v1000h450v-1000h-450z" />
    <glyph glyph-name="pi" horiz-adv-x="788" 
d="M744 319q0 -145 -103 -248t-248 -103t-247.5 103t-102.5 248t102.5 247.5t247.5 102.5t248 -102.5t103 -247.5zM713 319q0 133 -93.5 227t-226.5 94q-132 0 -225.5 -94t-93.5 -227q0 -134 93.5 -228t225.5 -94q133 0 226.5 94t93.5 228zM556 394q0 -44 -34 -77t-92 -33
q-24 0 -60 4v-117l55 -12v-24h-176v24l53 12v294l-53 12v22h170q66 0 101.5 -30.5t35.5 -74.5zM483 394q0 75 -73 77q-34 0 -40 -1v-158q5 -1 42 -1q71 3 71 83z" />
    <glyph glyph-name="product" 
d="M25 -200v1000h450v-1000h-450z" />
    <glyph glyph-name="radical" horiz-adv-x="875" 
d="M780 46l67 -19v-27h-223v27l71 19v347h-203v-347l81 -19v-27h-237v27l71 19v347h-203v-347l81 -19v-27h-237v27l71 19v347h-90v26l90 26v13q0 85 26.5 141t82.5 92q53 34 125 34q46 0 76.5 -16.5t40.5 -40.5q21 23 46 38q53 34 125 34q50 0 86 -22l44 23l9 -7v-688z
M492 442h203v176q-44 14 -59 86q-67 -1 -105.5 -53t-38.5 -147v-62zM204 442h203v31q0 75 21 127q-61 2 -80 89q-67 -1 -105.5 -53t-38.5 -147v-47z" />
    <glyph glyph-name="summation" 
d="M25 -200v1000h450v-1000h-450z" />
    </font>
</defs>
</svg>
